<?xml version="1.0" encoding="UTF-8"?>
<svg width="80px" height="37px" viewBox="0 0 80 37" version="1.1" xmlns="http://www.w3.org/2000/svg" xmlns:xlink="http://www.w3.org/1999/xlink">
    <!-- Generator: Sketch 53.1 (72631) - https://sketchapp.com -->
    <title>Group</title>
    <desc>Created with Sketch.</desc>
    <g id="Symbols" stroke="none" stroke-width="1" fill="none" fill-rule="evenodd">
        <g id="Header/Default-+-New-Notification" transform="translate(-73.000000, -13.000000)">
            <g id="Group" transform="translate(73.000000, 13.000000)">
                <path d="M11.5799271,0 C10.0058989,0 8.82884553,0.370315347 8.05077476,1.11094604 C7.26321311,1.87762625 6.86952354,2.9973804 6.86952354,4.47077071 L6.86952354,7.08452989 L5,7.08452989 L5,10.2666932 L6.86952354,10.2666932 L6.86952354,19.8388576 L11.1743739,19.8388576 L11.1743739,10.2666932 L13.3636675,10.2666932 L13.3636675,7.08452989 L11.1743739,7.08452989 L11.1743739,5.0509814 C11.1743739,4.50375426 11.2685528,4.09595761 11.4569105,3.82590476 C11.6292067,3.57403036 11.9287174,3.44771834 12.3547125,3.44771834 C12.4284495,3.44771834 12.5804863,3.46439752 12.8095454,3.49831811 C13.0309387,3.55660155 13.2160111,3.61600943 13.3636675,3.6752299 L13.3636675,0.23969298 C13.1667315,0.189093211 12.8383831,0.126312016 12.3793523,0.0505997691 C11.9533572,0.0164917766 11.6868821,0 11.5799271,0" id="Fill-2" fill="#373838"></path>
                <polygon id="Fill-4" fill="#373838" points="15 20.5740522 19.402497 20.5740522 19.402497 1 15 1"></polygon>
                <polygon id="Fill-6" fill="#373838" points="65.2544097 7.81972444 59.8185004 7.81972444 55.3048504 13.3883227 55.3048504 1 51 1 51 20.5738648 55.3048504 20.5738648 55.3048504 14.9035047 59.989884 20.5738648 65.7585222 20.5738648 59.670844 13.956352"></polygon>
                <path d="M45.3016234,14.7878667 C45.165283,15.1049586 44.979298,15.3783847 44.7431208,15.6083326 C44.4768282,15.8633929 44.2015923,16.0483632 43.917048,16.1632434 C43.6204576,16.2844954 43.2919266,16.3448403 42.9318202,16.3448403 C42.568611,16.3448403 42.2402626,16.2844954 41.9464099,16.1632434 C41.6468992,16.0419913 41.3707507,15.8579581 41.1179644,15.6109563 C40.8653606,15.3635796 40.6828434,15.0895912 40.5709604,14.7878667 C40.4406431,14.4990732 40.3758495,14.1774835 40.3758495,13.8229103 C40.3758495,13.4780823 40.4406431,13.1533067 40.5709604,12.8487711 C40.6917868,12.5412369 40.8752166,12.2678108 41.1203371,12.0281178 C41.3594347,11.7921729 41.6346706,11.6103886 41.9464099,11.4829521 C42.2430003,11.3650734 42.5717138,11.3058529 42.9318202,11.3058529 C43.2886413,11.3058529 43.6173548,11.3650734 43.917048,11.4829521 C44.2287873,11.6103886 44.5040232,11.7921729 44.7431208,12.0281178 C44.9942644,12.261439 45.1804319,12.5348651 45.3016234,12.8487711 C45.4315756,13.1533067 45.4967342,13.4780823 45.4967342,13.8229103 C45.4967342,14.1681132 45.4315756,14.4897029 45.3016234,14.7878667 M47.8309465,8.95689922 C47.1833755,8.31728066 46.4376103,7.82515105 45.5932858,7.48013559 C44.7810843,7.1602326 43.890948,7 42.924337,7 C41.9486001,7 41.0584638,7.1602326 40.2548406,7.48013559 C39.4105161,7.82515105 38.6645684,8.31728066 38.0169974,8.95689922 C37.3526349,9.60607552 36.8561881,10.3467062 36.5287523,11.1795409 C36.1757641,12.004692 36,12.8847531 36,13.8187874 C36,14.7790586 36.1757641,15.6503116 36.5287523,16.432734 C36.8315483,17.250014 37.3263524,17.9923313 38.0102443,18.6624972 C38.6950488,19.3315385 39.4435517,19.83004 40.2548406,20.1585637 C41.0507981,20.4868999 41.9400218,20.6506933 42.924337,20.6506933 C43.8993438,20.6506933 44.7896626,20.4868999 45.5932858,20.1585637 C46.3636909,19.8474688 47.1096386,19.3463437 47.8309465,18.6553757 C48.4706693,18.0324363 48.9747817,17.2918056 49.3438315,16.432734 C49.6960896,15.6250118 49.8725838,14.7537587 49.8725838,13.8187874 C49.8725838,12.8847531 49.6960896,12.004692 49.3438315,11.1795409 C49.0154831,10.3292774 48.5113706,9.58864671 47.8309465,8.95689922" id="Fill-7" fill="#FFFFFF"></path>
                <path d="M44.778995,12.2942283 C44.6817134,12.1980887 44.5694653,12.1240631 44.4426158,12.0721515 C44.3203293,12.023988 44.1865442,12 44.0412605,12 C43.8945167,12 43.7607316,12.023988 43.6399053,12.0721515 C43.5128733,12.1240631 43.4006252,12.1980887 43.3033436,12.2942283 C43.2035067,12.3918671 43.1288571,12.5031866 43.0795775,12.6283742 C43.026465,12.7524373 43,12.8849337 43,13.0253012 C43,13.1696043 43.026465,13.3006015 43.0795775,13.4182928 C43.1250243,13.5412315 43.1994913,13.6529258 43.3022485,13.7535631 C43.4053707,13.8542004 43.5178013,13.929163 43.6399053,13.9786384 C43.759454,14.0279263 43.8932391,14.052664 44.0412605,14.052664 C44.1878218,14.052664 44.3216069,14.0279263 44.4426158,13.9786384 C44.5583317,13.9317867 44.6705798,13.8564493 44.778995,13.7526261 C44.8751816,13.6589228 44.9509262,13.5476033 45.0064114,13.4182928 C45.0595239,13.2968533 45.0859889,13.1658562 45.0859889,13.0253012 C45.0859889,12.8849337 45.0595239,12.7524373 45.0064114,12.6283742 C44.9571318,12.5005629 44.8813872,12.3892434 44.778995,12.2942283" id="Fill-8" fill="#373838"></path>
                <path d="M30.3016234,14.7878667 C30.165283,15.1049586 29.979298,15.3783847 29.7431208,15.6083326 C29.4768282,15.8633929 29.2014098,16.0483632 28.917048,16.1632434 C28.6204576,16.2844954 28.2917441,16.3448403 27.9318202,16.3448403 C27.568611,16.3448403 27.2402626,16.2844954 26.9464099,16.1632434 C26.6468992,16.0419913 26.3707507,15.8579581 26.1179644,15.6109563 C25.8653606,15.3635796 25.6828434,15.0895912 25.5709604,14.7878667 C25.4406431,14.4990732 25.3758495,14.1774835 25.3758495,13.8229103 C25.3758495,13.4780823 25.4406431,13.1533067 25.5709604,12.8487711 C25.6917868,12.5412369 25.875034,12.2678108 26.1203371,12.0281178 C26.3594347,11.7921729 26.6346706,11.6103886 26.9464099,11.4829521 C27.2430003,11.3650734 27.5717138,11.3058529 27.9318202,11.3058529 C28.2886413,11.3058529 28.6173548,11.3650734 28.917048,11.4829521 C29.2287873,11.6103886 29.5040232,11.7921729 29.7431208,12.0281178 C29.9942644,12.261439 30.1804319,12.5348651 30.3016234,12.8487711 C30.4315756,13.1533067 30.4967342,13.4780823 30.4967342,13.8229103 C30.4967342,14.1681132 30.4315756,14.4897029 30.3016234,14.7878667 M32.8309465,8.95689922 C32.1833755,8.31728066 31.4374278,7.82515105 30.5931033,7.48013559 C29.7810843,7.1602326 28.890948,7 27.924337,7 C26.9486001,7 26.0584638,7.1602326 25.2548406,7.48013559 C24.4105161,7.82515105 23.6645684,8.31728066 23.0171799,8.95689922 C22.3526349,9.60607552 21.8561881,10.3467062 21.5287523,11.1795409 C21.1757641,12.004692 21,12.8847531 21,13.8187874 C21,14.7790586 21.1757641,15.6503116 21.5287523,16.432734 C21.8315483,17.250014 22.3263524,17.9923313 23.0102443,18.6624972 C23.6950488,19.3315385 24.4435517,19.83004 25.2548406,20.1585637 C26.0507981,20.4868999 26.9400218,20.6506933 27.924337,20.6506933 C28.8993438,20.6506933 29.7896626,20.4868999 30.5931033,20.1585637 C31.3636909,19.8474688 32.1096386,19.3463437 32.8309465,18.6553757 C33.4706693,18.0324363 33.9747817,17.2918056 34.3438315,16.432734 C34.6960896,15.6250118 34.8725838,14.7537587 34.8725838,13.8187874 C34.8725838,12.8847531 34.6960896,12.004692 34.3438315,11.1795409 C34.0154831,10.3292774 33.5113706,9.58864671 32.8309465,8.95689922" id="Fill-9" fill="#FFFFFF"></path>
                <path d="M29.778995,12.2942283 C29.6817134,12.1980887 29.5694653,12.1240631 29.4424333,12.0721515 C29.3203293,12.023988 29.1865442,12 29.0412605,12 C28.8945167,12 28.7605491,12.023988 28.6397227,12.0721515 C28.5128733,12.1240631 28.4006252,12.1980887 28.3033436,12.2942283 C28.2033241,12.3918671 28.1286746,12.5031866 28.0795775,12.6283742 C28.026465,12.7524373 28,12.8849337 28,13.0253012 C28,13.1696043 28.026465,13.3006015 28.0795775,13.4182928 C28.1250243,13.5412315 28.1994913,13.6529258 28.3022485,13.7535631 C28.4053707,13.8542004 28.5178013,13.929163 28.6397227,13.9786384 C28.759454,14.0279263 28.8932391,14.052664 29.0412605,14.052664 C29.1878218,14.052664 29.3216069,14.0279263 29.4424333,13.9786384 C29.5583317,13.9317867 29.6705798,13.8564493 29.778995,13.7526261 C29.8751816,13.6589228 29.9509262,13.5476033 30.0064114,13.4182928 C30.0595239,13.2968533 30.0859889,13.1658562 30.0859889,13.0253012 C30.0859889,12.8849337 30.0595239,12.7524373 30.0064114,12.6283742 C29.9571318,12.5005629 29.8813872,12.3892434 29.778995,12.2942283" id="Fill-10" fill="#373838"></path>
                <path d="M75.2888705,15.8333911 C74.9939227,15.0297918 74.2612987,14.0991309 73.0902685,13.0414083 C73.0827852,13.0376602 72.9345813,12.8999164 72.6452916,12.6278021 C71.7414664,11.8315116 71.380995,11.237058 71.5636947,10.8450035 C71.6938295,10.5657678 71.900804,10.4126566 72.1848007,10.3852952 C72.4797485,10.3541858 72.8553688,10.4505127 73.3116618,10.6748384 C73.8707119,10.9495764 74.3604055,11.306211 74.7801951,11.7441802 C75.2326552,12.1894581 75.6376608,12.7276897 75.9946644,13.3585002 L78.1089435,10.9763755 C77.4319873,10.1587207 76.8012079,9.52247548 76.2177004,9.06763978 C75.522675,8.52116227 74.8333076,8.07963244 74.1490506,7.74342508 C72.7361851,7.0490838 71.4810144,6.84124994 70.3837211,7.11936126 C69.2532096,7.39091336 68.4309697,8.078508 67.9164538,9.18195778 C67.5183838,10.0363442 67.4661839,10.8656182 67.7605841,11.6699672 C68.0177508,12.4375844 68.6614889,13.2974057 69.6917984,14.2496184 C69.8474856,14.4002932 70.0864006,14.6058782 70.4083609,14.8659985 C71.3298902,15.6248076 71.67284,16.2569299 71.4373928,16.762178 C71.2966721,17.0639026 71.0604948,17.2306944 70.7292261,17.2625535 C70.39814,17.3129659 69.9825483,17.215327 69.4822687,16.9694496 C68.7830454,16.625746 68.1566464,16.1463601 67.6023417,15.5311044 C67.0339832,14.9265308 66.5844434,14.2224444 66.2535397,13.4186577 L64,16.0998832 C64.5320376,16.9374031 65.1584366,17.6746605 65.8788319,18.3116554 C66.5992272,18.9488377 67.4523126,19.5099329 68.4384529,19.9945662 C69.8584366,20.6922808 71.1864317,20.8995525 72.421708,20.6161937 C73.6316144,20.3296491 74.5091571,19.6011999 75.0545184,18.4312208 C75.4766807,17.5256723 75.554798,16.659854 75.2888705,15.8333911" id="Fill-11" fill="#373838"></path>
                <path d="M3.47873733,34.471379 C1.35394038,34.471379 -1.42108547e-14,33.236032 -1.42108547e-14,31.4274839 C-1.42108547e-14,29.0259692 1.76901699,27.2767177 4.33853888,27.2767177 C5.61341705,27.2767177 6.65110858,27.7412082 7.14524741,28.5812442 L5.73201037,29.7078808 C5.40587874,29.1840936 4.90185714,28.8974931 4.21006279,28.8974931 C2.86600518,28.8974931 1.9765553,29.9351846 1.9765553,31.2990078 C1.9765553,32.2279888 2.60905299,32.8506037 3.66651008,32.8506037 C4.289125,32.8506037 4.86232604,32.613417 5.35646486,32.0500988 L6.51274971,33.1866181 C5.73201037,34.1254819 4.71408439,34.471379 3.47873733,34.471379 Z M9.8827765,34.4219651 C8.17305616,34.4219651 7.07606797,33.4534531 7.07606797,31.9809194 C7.07606797,30.2119024 8.4497739,28.8876103 10.3670325,28.8876103 C12.0767529,28.8876103 13.1737411,29.8462396 13.1737411,31.3187733 C13.1737411,33.0976731 11.8000351,34.4219651 9.8827765,34.4219651 Z M9.99148704,32.9099003 C10.7425781,32.9099003 11.2663652,32.307051 11.2663652,31.4176011 C11.2663652,30.7949862 10.9007025,30.3897923 10.258322,30.3897923 C9.50723099,30.3897923 8.98344383,30.9926417 8.98344383,31.8919744 C8.98344383,32.5145893 9.34910656,32.9099003 9.99148704,32.9099003 Z M17.8977082,28.8876103 C19.0441103,28.8876103 19.8347324,29.5102252 19.8347324,30.7060412 C19.8347324,30.9135795 19.8149669,31.1310006 19.765553,31.3681872 L19.1725864,34.3330202 L17.2948589,34.3330202 L17.8482944,31.5460772 C17.8779427,31.4176011 17.8878255,31.2990078 17.8878255,31.1902972 C17.8878255,30.7258067 17.6506388,30.4787373 17.1466172,30.4787373 C16.5042367,30.4787373 16.0595118,30.8641656 15.8915046,31.6844361 L15.3578347,34.3330202 L13.4801071,34.3330202 L14.547447,28.9765553 L16.3263468,28.9765553 L16.2176362,29.5299908 C16.6920095,29.0852658 17.3047416,28.8876103 17.8977082,28.8876103 Z M24.7761207,28.8876103 C25.9225227,28.8876103 26.7131449,29.5102252 26.7131449,30.7060412 C26.7131449,30.9135795 26.6933793,31.1310006 26.6439654,31.3681872 L26.0509988,34.3330202 L24.1732713,34.3330202 L24.7267068,31.5460772 C24.7563551,31.4176011 24.7662379,31.2990078 24.7662379,31.1902972 C24.7662379,30.7258067 24.5290513,30.4787373 24.0250297,30.4787373 C23.3826492,30.4787373 22.9379242,30.8641656 22.769917,31.6844361 L22.2362471,34.3330202 L20.3585196,34.3330202 L21.4258594,28.9765553 L23.2047592,28.9765553 L23.0960487,29.5299908 C23.5704219,29.0852658 24.1831541,28.8876103 24.7761207,28.8876103 Z M33.295074,31.2397111 C33.295074,31.55596 33.2456601,31.8524433 33.1863635,32.1192782 L29.2530184,32.1192782 C29.3221979,32.7122448 29.7273917,32.9889626 30.4685999,32.9889626 C30.9429732,32.9889626 31.4074637,32.8407209 31.7632437,32.5541204 L32.543983,33.7301708 C31.8719542,34.2243096 31.0714493,34.4219651 30.2610616,34.4219651 C28.5414585,34.4219651 27.414822,33.4732186 27.414822,31.9809194 C27.414822,30.2020196 28.7292313,28.8876103 30.6563727,28.8876103 C32.2870308,28.8876103 33.295074,29.8363569 33.295074,31.2397111 Z M30.5674277,30.2217851 C29.93493,30.2217851 29.5396189,30.5973306 29.361729,31.1310006 L31.5655881,31.1310006 C31.5754709,30.5577995 31.1702771,30.2217851 30.5674277,30.2217851 Z M36.5366247,34.4219651 C34.8269044,34.4219651 33.7101506,33.4534531 33.7101506,31.9809194 C33.7101506,30.2119024 35.0937393,28.8876103 37.0307635,28.8876103 C38.246345,28.8876103 39.1654433,29.4212802 39.5706371,30.3403785 L37.9696273,31.1013522 C37.762089,30.5973306 37.3964263,30.3897923 36.9319358,30.3897923 C36.170962,30.3897923 35.6175265,30.9926417 35.6175265,31.8722088 C35.6175265,32.4948237 35.9831892,32.9099003 36.6651008,32.9099003 C37.1493568,32.9099003 37.5347851,32.7122448 37.8213856,32.2082232 L39.1950916,33.0383764 C38.6811872,33.9080608 37.7126751,34.4219651 36.5366247,34.4219651 Z M42.3378145,30.5775651 L41.9820346,32.3366993 C41.9721518,32.4058787 41.962269,32.4651754 41.962269,32.5145893 C41.962269,32.8110726 42.1302762,32.969197 42.4564078,32.969197 C42.6540634,32.969197 42.8319533,32.9099003 43.0197261,32.8110726 L43.2569127,34.1057163 C42.8616017,34.3330202 42.3575801,34.4219651 41.8634412,34.4219651 C40.766453,34.4219651 40.0548931,33.8487641 40.0548931,32.8506037 C40.0548931,32.6924793 40.0647759,32.5244721 40.104307,32.3465821 L40.460087,30.5775651 L39.6694649,30.5775651 L39.9560654,29.1742108 L40.7368047,29.1742108 L41.0135225,27.7807393 L42.89125,27.7807393 L42.6145322,29.1742108 L43.8301138,29.1742108 L43.553396,30.5775651 L42.3378145,30.5775651 Z M52.4577776,30.1526057 L52.1711771,31.5954911 L50.5009879,31.5954911 L50.1748563,33.2261492 L48.6529087,33.2261492 L48.9790403,31.5954911 L47.3088511,31.5954911 L47.5954516,30.1526057 L49.2656408,30.1526057 L49.5917725,28.5219476 L51.11372,28.5219476 L50.7875884,30.1526057 L52.4577776,30.1526057 Z M60.0773983,27.4150766 C61.8760636,27.4150766 62.8841068,28.2353471 62.8841068,29.6387013 C62.8841068,31.3879528 61.549932,32.5244721 59.4646662,32.5244721 L58.0810775,32.5244721 L57.7252975,34.3330202 L55.7685078,34.3330202 L57.1520965,27.4150766 L60.0773983,27.4150766 Z M59.5536112,30.9827589 C60.4134127,30.9827589 60.9075515,30.5676823 60.9075515,29.8067085 C60.9075515,29.2236247 60.5023577,28.9567897 59.8204461,28.9567897 L58.7926374,28.9567897 L58.3874435,30.9827589 L59.5536112,30.9827589 Z M62.9631691,34.3330202 L64.42582,27 L66.3035475,27 L64.8408966,34.3330202 L62.9631691,34.3330202 Z M70.9089214,28.9765553 L72.7866489,28.9765553 L71.719309,34.3330202 L69.9404093,34.3330202 L70.0491198,33.8289986 C69.6340432,34.2144268 69.1201388,34.4219651 68.4975239,34.4219651 C67.341239,34.4219651 66.2343681,33.542398 66.2343681,31.9809194 C66.2343681,30.2020196 67.5388946,28.8876103 69.1399044,28.8876103 C69.861347,28.8876103 70.4444309,29.1050314 70.7804453,29.6189358 L70.9089214,28.9765553 Z M69.1497871,32.9099003 C69.9008782,32.9099003 70.4246653,32.307051 70.4246653,31.4176011 C70.4246653,30.7949862 70.0491198,30.3897923 69.4067393,30.3897923 C68.6655311,30.3897923 68.1318612,30.9926417 68.1318612,31.8919744 C68.1318612,32.5145893 68.5074067,32.9099003 69.1497871,32.9099003 Z M77.7972166,28.9765553 L79.635413,28.9765553 L76.2060896,34.5702068 C75.3660536,35.93403 74.6742592,36.3392238 73.5476227,36.3392238 C72.9843044,36.3392238 72.3616895,36.151451 72.0355579,35.8747333 L72.8755939,34.5504412 C73.093015,34.738214 73.3796155,34.8568073 73.7057471,34.8568073 C74.0516443,34.8568073 74.2690654,34.7085657 74.4963692,34.3725513 L73.2807877,28.9765553 L75.1486325,28.9765553 L75.8206613,32.2675199 L77.7972166,28.9765553 Z" id="Connect-+-Play" fill="#373838"></path>
            </g>
        </g>
    </g>
</svg>