<?xml version="1.0" encoding="UTF-8"?>
<svg width="117px" height="22px" viewBox="0 0 117 22" version="1.1" xmlns="http://www.w3.org/2000/svg" xmlns:xlink="http://www.w3.org/1999/xlink">
    <!-- Generator: Sketch 52.3 (67297) - http://www.bohemiancoding.com/sketch -->
    <title>Football</title>
    <desc>Created with Sketch.</desc>
    <g id="Home-(Dark)" stroke="none" stroke-width="1" fill="none" fill-rule="evenodd">
        <g id="Football">
            <path d="M15.136,5.04 L4.86,5.04 L4.86,10.22 L13.932,10.22 L13.932,13.86 L4.86,13.86 L4.86,21 L0.324,21 L0.324,1.4 L15.136,1.4 L15.136,5.04 Z M63.128,17.192 L64.304,20.272 C63.408,20.916 62.092,21.224 60.748,21.224 C57.192,21.224 55.12,19.404 55.12,15.82 L55.12,9.632 L52.796,9.632 L52.796,6.272 L55.12,6.272 L55.12,2.604 L59.488,2.604 L59.488,6.272 L63.24,6.272 L63.24,9.632 L59.488,9.632 L59.488,15.764 C59.488,17.052 60.188,17.752 61.364,17.752 C62.008,17.752 62.652,17.556 63.128,17.192 Z M75.672,5.712 C79.9,5.712 83.176,8.736 83.176,13.468 C83.176,18.2 79.9,21.224 75.672,21.224 C73.656,21.224 72.032,20.58 70.94,19.264 L70.94,21 L66.768,21 L66.768,0.224 L71.136,0.224 L71.136,7.532 C72.256,6.3 73.796,5.712 75.672,5.712 Z M74.916,17.64 C77.1,17.64 78.752,16.072 78.752,13.468 C78.752,10.864 77.1,9.296 74.916,9.296 C72.732,9.296 71.08,10.864 71.08,13.468 C71.08,16.072 72.732,17.64 74.916,17.64 Z M92.164,5.712 C96.756,5.712 99.416,7.84 99.416,12.404 L99.416,21 L95.328,21 L95.328,19.124 C94.516,20.496 92.948,21.224 90.736,21.224 C87.208,21.224 85.108,19.264 85.108,16.66 C85.108,14 86.984,12.152 91.576,12.152 L95.048,12.152 C95.048,10.276 93.928,9.184 91.576,9.184 C89.98,9.184 88.328,9.716 87.236,10.584 L85.668,7.532 C87.32,6.356 89.756,5.712 92.164,5.712 Z M91.828,18.284 C93.284,18.284 94.544,17.612 95.048,16.24 L95.048,14.7 L92.052,14.7 C90.008,14.7 89.364,15.456 89.364,16.464 C89.364,17.556 90.288,18.284 91.828,18.284 Z M103.364,21 L103.364,0.224 L107.732,0.224 L107.732,21 L103.364,21 Z M111.792,21 L111.792,0.224 L116.16,0.224 L116.16,21 L111.792,21 Z" fill="#ffffff"></path>
            <path d="M25.076,21.224 C20.288,21.224 16.788,18.004 16.788,13.468 C16.788,8.932 20.288,5.712 25.076,5.712 C29.864,5.712 33.336,8.932 33.336,13.468 C33.336,18.004 29.864,21.224 25.076,21.224 Z M25.076,17.64 C27.26,17.64 28.912,16.072 28.912,13.468 C28.912,10.864 27.26,9.296 25.076,9.296 C22.892,9.296 21.212,10.864 21.212,13.468 C21.212,16.072 22.892,17.64 25.076,17.64 Z" id="Combined-Shape" fill="#FED800"></path>
            <path d="M27.1584977,12.4300781 C27.0185904,12.2895494 26.857159,12.181345 26.6744658,12.105465 C26.4988599,12.0350637 26.3064546,12 26.0975124,12 C25.8864704,12 25.6938026,12.0350637 25.5200341,12.105465 C25.3376034,12.181345 25.176172,12.2895494 25.0362647,12.4300781 C24.8924201,12.5727982 24.7850617,12.7355157 24.7144518,12.9185043 C24.6380672,13.0998493 24.6000061,13.2935214 24.6000061,13.4986988 C24.6000061,13.7096288 24.6380672,13.9011094 24.7144518,14.0731407 C24.7798119,14.2528421 24.8869078,14.4161074 25.0346898,14.5632105 C25.1829967,14.7103137 25.3446907,14.8198877 25.5200341,14.8922065 C25.6922276,14.9642515 25.8846329,15.0004109 26.0975124,15.0004109 C26.308292,15.0004109 26.5006973,14.9642515 26.6744658,14.8922065 C26.8411471,14.8237228 27.0025785,14.7136009 27.1584977,14.5618408 C27.29683,14.4248733 27.4057634,14.2621559 27.4855604,14.0731407 C27.561945,13.8956307 27.6000061,13.7041501 27.6000061,13.4986988 C27.6000061,13.2935214 27.561945,13.0998493 27.4855604,12.9185043 C27.4146881,12.7316806 27.3057546,12.5689632 27.1584977,12.4300781" id="Fill-10" fill="#ffffff"></path>
            <path d="M43.416,21.224 C38.628,21.224 35.128,18.004 35.128,13.468 C35.128,8.932 38.628,5.712 43.416,5.712 C48.204,5.712 51.676,8.932 51.676,13.468 C51.676,18.004 48.204,21.224 43.416,21.224 Z M43.416,17.64 C45.6,17.64 47.252,16.072 47.252,13.468 C47.252,10.864 45.6,9.296 43.416,9.296 C41.232,9.296 39.552,10.864 39.552,13.468 C39.552,16.072 41.232,17.64 43.416,17.64 Z" id="Combined-Shape" fill="#FED800"></path>
            <path d="M45.5584916,12.4300781 C45.4185843,12.2895494 45.2571529,12.181345 45.0744597,12.105465 C44.8988538,12.0350637 44.7064485,12 44.4975063,12 C44.2864643,12 44.0937965,12.0350637 43.920028,12.105465 C43.7375973,12.181345 43.5761659,12.2895494 43.4362586,12.4300781 C43.292414,12.5727982 43.1850556,12.7355157 43.1144457,12.9185043 C43.0380611,13.0998493 43,13.2935214 43,13.4986988 C43,13.7096288 43.0380611,13.9011094 43.1144457,14.0731407 C43.1798058,14.2528421 43.2869017,14.4161074 43.4346837,14.5632105 C43.5829906,14.7103137 43.7446846,14.8198877 43.920028,14.8922065 C44.0922215,14.9642515 44.2846268,15.0004109 44.4975063,15.0004109 C44.7082859,15.0004109 44.9006912,14.9642515 45.0744597,14.8922065 C45.241141,14.8237228 45.4025724,14.7136009 45.5584916,14.5618408 C45.6968239,14.4248733 45.8057573,14.2621559 45.8855543,14.0731407 C45.9619389,13.8956307 46,13.7041501 46,13.4986988 C46,13.2935214 45.9619389,13.0998493 45.8855543,12.9185043 C45.8146819,12.7316806 45.7057485,12.5689632 45.5584916,12.4300781" id="Fill-10" fill="#ffffff"></path>
        </g>
    </g>
</svg>