<?xml version="1.0" encoding="UTF-8"?>
<svg width="17px" height="16px" viewBox="0 0 17 16" version="1.1" xmlns="http://www.w3.org/2000/svg" xmlns:xlink="http://www.w3.org/1999/xlink">
    <!-- Generator: Sketch 53.1 (72631) - https://sketchapp.com -->
    <title>Fill 1</title>
    <desc>Created with Sketch.</desc>
    <g id="Page-1" stroke="none" stroke-width="1" fill="none" fill-rule="evenodd">
        <g id="Edit-Profile" transform="translate(-92.000000, -384.000000)" fill="#FDD92A">
            <g id="Group" transform="translate(91.000000, 184.000000)">
                <g id="Group-3" transform="translate(1.000000, 200.000000)">
                    <path d="M8.46148621,9.9558069 C7.29258966,9.9558069 6.34586552,9.06366897 6.34586552,7.96463448 C6.34586552,6.86449655 7.29258966,5.97291034 8.46148621,5.97291034 C9.63038276,5.97291034 10.5771069,6.86504828 10.5771069,7.96463448 C10.5771069,9.06366897 9.62921034,9.9558069 8.46148621,9.9558069 L8.46148621,9.9558069 Z M15.1764862,6.73373793 C14.8874862,6.69456552 14.5797276,6.4496 14.4906241,6.18918621 L14.0609345,5.20601379 C13.9261069,4.9638069 13.9577621,4.58532414 14.1312793,4.3673931 L14.8294517,3.49235862 C15.002969,3.27332414 14.9894862,2.92518621 14.7966241,2.72104828 L14.0322103,1.99994483 C13.8141414,1.81953103 13.444831,1.80573793 13.2109345,1.97015172 L12.282969,2.62615172 C12.0502448,2.79056552 11.6492793,2.82035862 11.3913483,2.69291034 L10.3473138,2.28904828 C10.0688655,2.20518621 9.80858966,1.91553103 9.76931379,1.64408276 L9.60400345,0.562703448 C9.56414138,0.291255172 9.29331379,0.0462896552 9.00431379,0.0170482759 C9.00431379,0.0170482759 8.82493448,-5.51724138e-05 8.46148621,-5.51724138e-05 C8.09921034,-5.51724138e-05 7.91924483,0.0170482759 7.91924483,0.0170482759 C7.62965862,0.0462896552 7.35883103,0.291255172 7.31838276,0.562703448 L7.15365862,1.64408276 C7.11321034,1.91553103 6.85293448,2.20518621 6.57565862,2.28904828 L5.53162414,2.69291034 C5.2736931,2.8198069 4.87272759,2.79056552 4.64000345,2.62615172 L3.71086552,1.9696 C3.47814138,1.80463448 3.10824483,1.81842759 2.89017586,1.9993931 L2.12576207,2.72049655 C1.93407241,2.92518621 1.91824483,3.27277241 2.09352069,3.4918069 L2.78993448,4.36628966 C2.96579655,4.58532414 2.99686552,4.96325517 2.86203793,5.20546207 L2.43117586,6.18918621 C2.34324483,6.45015172 2.0349,6.69511724 1.74648621,6.73373793 L0.59752069,6.88711724 C0.309693103,6.92628966 0.0494172414,7.18063448 0.0189344828,7.45318621 C0.0189344828,7.45318621 0.000175862069,7.62256552 0.000175862069,7.96463448 C0.000175862069,8.30615172 0.0189344828,8.47553103 0.0189344828,8.47553103 C0.0494172414,8.74808276 0.309693103,9.00187586 0.59752069,9.04104828 L1.74648621,9.19497931 C2.03431379,9.23415172 2.34324483,9.47911724 2.43117586,9.73953103 L2.86203793,10.7216 C2.99686552,10.9643586 2.96521034,11.3433931 2.78993448,11.5607724 L2.09352069,12.4358069 C1.91824483,12.6548414 1.87603793,12.9527724 2.00031379,13.095669 C2.12341724,13.239669 2.47748621,13.5949793 2.47865862,13.5960828 C2.47924483,13.5977379 2.59883103,13.6998069 2.74303793,13.8244966 C2.88665862,13.9491862 3.47814138,14.1224276 3.71086552,13.9591172 L4.63941724,13.3020138 C4.87214138,13.1387034 5.2731069,13.1078069 5.53103793,13.2358069 L6.57507241,13.6402207 C6.85293448,13.7229793 7.11321034,14.0131862 7.15307241,14.2846345 L7.31721034,15.3660138 C7.35824483,15.6369103 7.62848621,15.8829793 7.91865862,15.911669 C7.91865862,15.911669 8.09803793,15.9293241 8.4609,15.9293241 C8.82376207,15.9293241 9.00372759,15.911669 9.00372759,15.911669 C9.29214138,15.8829793 9.56296897,15.6369103 9.60341724,15.3660138 L9.76814138,14.2846345 C9.80858966,14.0137379 10.0688655,13.7229793 10.3467276,13.6402207 L11.3907621,13.2341517 C11.6481069,13.1078069 12.0490724,13.1376 12.2823828,13.3020138 L13.2115207,13.9591172 C13.4460034,14.1224276 13.8141414,14.1097379 14.0327966,13.9282207 L14.7960379,13.2082207 C14.9883138,13.0018759 15.0023828,12.6548414 14.8288655,12.4358069 L14.1306931,11.5607724 C13.9571759,11.3433931 13.9255207,10.9649103 14.0603483,10.7216 L14.4894517,9.73953103 C14.5791414,9.47856552 14.8863138,9.2336 15.1759,9.19497931 L16.3236931,9.04104828 C16.6126931,9.00187586 16.872969,8.74808276 16.9034517,8.47553103 C16.9034517,8.47553103 16.9222103,8.30615172 16.9222103,7.96463448 C16.9222103,7.62256552 16.9034517,7.45318621 16.9034517,7.45318621 C16.872969,7.18118621 16.6126931,6.92628966 16.3236931,6.88711724 L15.1764862,6.73373793 Z" id="Fill-1"></path>
                </g>
            </g>
        </g>
    </g>
</svg>