<?xml version="1.0" encoding="UTF-8"?>
<svg width="14px" height="14px" viewBox="0 0 14 14" version="1.1" xmlns="http://www.w3.org/2000/svg" xmlns:xlink="http://www.w3.org/1999/xlink">
    <!-- Generator: Sketch 53.1 (72631) - https://sketchapp.com -->
    <title>football</title>
    <desc>Created with Sketch.</desc>
    <g id="Page-1" stroke="none" stroke-width="1" fill="none" fill-rule="evenodd">
        <g id="My-bets" transform="translate(-662.000000, -301.000000)" fill="#8F9191">
            <g id="Group-10" transform="translate(345.000000, 281.000000)">
                <g id="Group" transform="translate(317.000000, 20.000000)">
                    <g id="football">
                        <path d="M12.1932632,9.58410526 C12.0908421,9.54947368 11.9832632,9.53031579 11.8712632,9.548 L9.89947368,9.86042105 C9.60252632,9.90757895 9.36968421,10.1404211 9.32252632,10.4373684 L9.01010526,12.4091579 C9.00789474,12.4224211 9.01010526,12.4349474 9.01010526,12.4474737 C8.34989474,12.6994737 7.63589474,12.8438947 6.88726316,12.8438947 C6.07010526,12.8438947 5.29273684,12.6788421 4.58389474,12.3811579 L4.27589474,10.4373684 C4.22873684,10.1404211 3.99589474,9.90757895 3.69894737,9.86042105 L1.72715789,9.548 C1.67189474,9.53915789 1.61736842,9.54284211 1.56431579,9.548 C1.16273684,8.74705263 0.931368421,7.84515789 0.931368421,6.888 C0.931368421,6.82610526 0.938736842,6.76568421 0.940210526,6.70452632 C0.951263158,6.70157895 0.962315789,6.69936842 0.972631579,6.69421053 L2.76315789,5.81073684 C3.03284211,5.67736842 3.18610526,5.38631579 3.14263158,5.08863158 L2.856,3.11242105 C2.83242105,2.95473684 2.74768421,2.82357895 2.63642105,2.71968421 C3.21336842,2.13094737 3.91189474,1.66452632 4.69147368,1.35505263 C4.73642105,1.43021053 4.78947368,1.50094737 4.86389474,1.55473684 L6.47978947,2.72852632 C6.72294737,2.90536842 7.05157895,2.90536842 7.29473684,2.72852632 L8.91063158,1.55473684 C8.98431579,1.50094737 9.03736842,1.43021053 9.08305263,1.35505263 C9.86042105,1.66378947 10.5582105,2.12873684 11.1344211,2.71526316 C11.0209474,2.81989474 10.9347368,2.95252632 10.9111579,3.11242105 L10.6245263,5.08863158 C10.5810526,5.38631579 10.7343158,5.67736842 11.004,5.81073684 L12.7945263,6.69421053 C12.8070526,6.70084211 12.8210526,6.70305263 12.8343158,6.70673684 C12.8357895,6.76715789 12.8431579,6.82684211 12.8431579,6.888 C12.8431579,7.85915789 12.6058947,8.77357895 12.1932632,9.58410526 M6.88726316,0 C3.08368421,0 0,3.08368421 0,6.888 C0,10.6915789 3.08368421,13.7752632 6.88726316,13.7752632 C10.6908421,13.7752632 13.7745263,10.6915789 13.7745263,6.888 C13.7745263,3.08368421 10.6908421,0 6.88726316,0" id="Fill-6"></path>
                        <path d="M7.67370337,5.11273684 C7.53370337,5.03978947 7.40844021,5 7.27580863,5 C7.1439139,5 7.00980863,5.04052632 6.86833495,5.11273684 C6.86833495,5.11273684 5.75349284,5.70810526 5.25317705,6.28652632 C5.07633495,6.48989474 4.98865074,6.81484211 5.00117705,7.06168421 C5.03654548,7.77715789 5.39538758,8.64957895 5.6179139,8.96126316 C5.808756,9.228 6.046756,9.41 6.27812442,9.44021053 C6.65170337,9.48957895 6.98107179,9.50578947 7.26622969,9.508 L7.26622969,9.508 C7.26770337,9.508 7.26917705,9.508 7.27138758,9.508 C7.27286127,9.508 7.27433495,9.508 7.27580863,9.508 L7.27580863,9.508 C7.56096653,9.50578947 7.89033495,9.48957895 8.26465074,9.44021053 C8.49528232,9.41 8.73328232,9.228 8.92412442,8.96126316 C9.14738758,8.64957895 9.50549284,7.77715789 9.54086127,7.06168421 C9.55338758,6.81484211 9.46570337,6.48989474 9.28886127,6.28652632 C8.78854548,5.70810526 7.67370337,5.11273684 7.67370337,5.11273684" id="Fill-8"></path>
                    </g>
                </g>
            </g>
        </g>
    </g>
</svg>