<?xml version="1.0" encoding="UTF-8"?>
<svg width="17px" height="11px" viewBox="0 0 17 11" version="1.1" xmlns="http://www.w3.org/2000/svg" xmlns:xlink="http://www.w3.org/1999/xlink">
    <!-- Generator: Sketch 53.1 (72631) - https://sketchapp.com -->
    <title>Google-plus</title>
    <desc>Created with Sketch.</desc>
    <g id="Page-1" stroke="none" stroke-width="1" fill="none" fill-rule="evenodd">
        <g id="News" transform="translate(-460.000000, -184.000000)" fill="#FFFFFF" fill-rule="nonzero">
            <path d="M465.964493,190.634667 C465.763236,190.634667 465.600042,190.469671 465.600042,190.266109 L465.600042,188.915567 C465.600042,188.712005 465.763199,188.547009 465.964493,188.547009 L470.875379,188.547009 C470.875379,188.547009 470.872596,189.773072 470.868367,189.80935 C470.709625,192.702928 468.33973,195 465.438703,195 C462.422079,195 459.979064,192.516361 460.000135,189.460788 C460.021021,186.427989 462.548472,183.941835 465.546955,184.001036 C466.952784,184.028798 468.22762,184.596303 469.17796,185.506781 C469.330061,185.652494 469.329505,185.897736 469.176958,186.042961 L468.201429,186.971446 C468.061829,187.104328 467.84577,187.103503 467.703833,186.97321 C467.104589,186.423262 466.309727,186.087643 465.438703,186.087643 C463.53372,186.087643 461.992335,187.692355 462.066977,189.635276 C462.136609,191.447828 463.619714,192.898874 465.413365,192.912268 C466.891609,192.923297 468.154277,191.967613 468.620488,190.634667 L465.964493,190.634667 Z M475.375775,188.669649 L476.680623,188.669649 C476.857024,188.669649 477,188.814236 477,188.992625 L477,190.103251 C477,190.28164 476.857024,190.426227 476.680623,190.426227 L475.375775,190.426227 L475.375775,191.74578 C475.375775,191.924169 475.232799,192.068756 475.056398,192.068756 L473.958149,192.068756 C473.781748,192.068756 473.638772,191.924169 473.638772,191.74578 L473.638772,190.426227 L472.333924,190.426227 C472.157523,190.426227 472.014547,190.28164 472.014547,190.103251 L472.014547,188.992625 C472.014547,188.814236 472.157523,188.669649 472.333924,188.669649 L473.638772,188.669649 L473.638772,187.350096 C473.638772,187.171707 473.781748,187.02712 473.958149,187.02712 L475.056398,187.02712 C475.232799,187.02712 475.375775,187.171707 475.375775,187.350096 L475.375775,188.669649 Z" id="Google-plus"></path>
        </g>
    </g>
</svg>