<?xml version="1.0" encoding="UTF-8"?>
<svg width="13px" height="11px" viewBox="0 0 13 11" version="1.1" xmlns="http://www.w3.org/2000/svg" xmlns:xlink="http://www.w3.org/1999/xlink">
    <!-- Generator: Sketch 53.1 (72631) - https://sketchapp.com -->
    <title>pending_icon</title>
    <desc>Created with Sketch.</desc>
    <defs>
        <polygon id="path-1" points="0 0.1148125 8.21057836 0.1148125 8.21057836 7.86754348 0 7.86754348"></polygon>
        <polygon id="path-3" points="0.417519143 0.242139242 8.69627778 0.242139242 8.69627778 8.25 0.417519143 8.25"></polygon>
    </defs>
    <g id="Page-1" stroke="none" stroke-width="1" fill="none" fill-rule="evenodd">
        <g id="Transactions" transform="translate(-1033.000000, -352.000000)">
            <g id="pending_icon" transform="translate(1033.000000, 352.000000)">
                <g id="Group-3" transform="translate(0.000000, 0.572962)">
                    <mask id="mask-2" fill="white">
                        <use xlink:href="#path-1"></use>
                    </mask>
                    <g id="Clip-2"></g>
                    <path d="M2.83573333,5.116925 C2.58728889,5.0578 2.34462222,5.1423625 2.17778889,5.3046125 C2.17345556,5.1519875 2.17634444,4.998675 2.19223333,4.841925 C2.36267778,3.134175 3.78545556,1.7062375 5.57006667,1.4642375 C6.19334444,1.379675 6.79351111,1.4333 7.34312222,1.596925 C7.57784444,1.66705 7.83423333,1.59555 8.00828889,1.4298625 C8.37517778,1.0806125 8.22062222,0.483175 7.72517778,0.3381125 C6.9394,0.1084875 6.07634444,0.045925 5.18078889,0.1964875 C3.03578889,0.557425 1.29523333,2.1929875 0.8944,4.2307375 C0.773788889,4.8412375 0.776677778,5.43455 0.869122222,5.9989875 C0.512344444,5.911675 0.141844444,6.10005 0.0313444444,6.4389875 C-0.0827666667,6.788925 0.123066667,7.1608625 0.490677778,7.2688 L1.76395556,7.7356125 C1.83617778,7.787175 1.91923333,7.825675 2.0124,7.847675 C2.38506667,7.9363625 2.76351111,7.7198 2.85667778,7.3643625 L3.34345556,5.9206125 C3.43662222,5.565175 3.20912222,5.2056125 2.83573333,5.116925" id="Fill-1" fill="#FFFFFF" mask="url(#mask-2)"></path>
                </g>
                <g id="Group-6" transform="translate(3.611111, 2.635462)">
                    <mask id="mask-4" fill="white">
                        <use xlink:href="#path-3"></use>
                    </mask>
                    <g id="Clip-5"></g>
                    <path d="M8.25182222,0.9524625 L7.01537778,0.4024625 C6.94676667,0.346775 6.8666,0.302775 6.7756,0.2745875 C6.41015556,0.1618375 6.01726667,0.352275 5.89882222,0.7008375 L5.30732222,2.109525 C5.18887778,2.4574 5.38965556,2.8314 5.7551,2.9448375 C6.03098889,3.0300875 6.32204444,2.9414 6.49898889,2.7440875 C6.60226667,3.6619 6.40437778,4.6622125 5.18093333,5.8268375 C4.47893333,6.4950875 3.53571111,6.9399 2.54265556,6.9399 C2.13026667,6.9399 1.73304444,6.8800875 1.35893333,6.7694 C1.1336,6.7027125 0.888044444,6.74465 0.720488889,6.9034625 L0.594822222,7.0230875 C0.271266667,7.331775 0.411377778,7.8494625 0.846155556,7.9883375 C1.37915556,8.15815 1.94971111,8.250275 2.54265556,8.250275 C5.50087778,8.250275 7.89937778,5.9670875 7.89937778,3.1510875 C7.89937778,2.8238375 7.85676667,2.5069 7.79393333,2.19615 C8.1406,2.2985875 8.51615556,2.1377125 8.64904444,1.8104625 C8.78843333,1.4694625 8.61076667,1.08515 8.25182222,0.9524625" id="Fill-4" fill="#FFFFFF" mask="url(#mask-4)"></path>
                </g>
            </g>
        </g>
    </g>
</svg>