<svg width="17" height="17" viewBox="0 0 17 17" fill="none" xmlns="http://www.w3.org/2000/svg">
<path d="M14.8142 7.09098L16.2704 6.73131C16.4224 7.34662 16.5 7.98141 16.5 8.62542C16.5 12.9745 12.9742 16.5 8.62458 16.5C4.27566 16.5 0.75 12.9743 0.75 8.62542C0.75 4.2758 4.27552 0.75 8.62458 0.75C10.0021 0.75 11.3303 1.10499 12.5039 1.77018L11.7642 3.07513C10.8147 2.53695 9.74111 2.25 8.62458 2.25C5.10397 2.25 2.25 5.1042 2.25 8.62542C2.25 12.1459 5.10409 15 8.62458 15C12.1458 15 15 12.146 15 8.62542C15 8.10292 14.9372 7.58888 14.8142 7.09098Z" fill="#43BC9C"/>
<path d="M13.7303 3.20935L14.7698 4.29077L8.00806 10.7903L4.73035 7.64014L5.76976 6.55865L8.00799 8.70979L13.7303 3.20935Z" fill="#66C9AF"/>
</svg>