<?xml version="1.0" encoding="UTF-8"?>
<svg width="18px" height="14px" viewBox="0 0 18 14" version="1.1" xmlns="http://www.w3.org/2000/svg" xmlns:xlink="http://www.w3.org/1999/xlink">
    <!-- Generator: Sketch 53.1 (72631) - https://sketchapp.com -->
    <title>Group 7</title>
    <desc>Created with Sketch.</desc>
    <defs>
        <polygon id="path-1" points="0.201674202 0.462365519 11.25 0.462365519 11.25 13.44 0.201674202 13.44"></polygon>
        <polygon id="path-3" points="0 0.401101519 8.188875 0.401101519 8.188875 13.3788191 0 13.3788191"></polygon>
    </defs>
    <g id="Page-1" stroke="none" stroke-width="1" fill="none" fill-rule="evenodd">
        <g id="Edit-Profile" transform="translate(-91.000000, -435.000000)">
            <g id="Group" transform="translate(91.000000, 184.000000)">
                <g id="Group-7" transform="translate(0.000000, 251.000000)">
                    <g id="Group-3" transform="translate(6.750000, 0.158872)">
                        <mask id="mask-2" fill="white">
                            <use xlink:href="#path-1"></use>
                        </mask>
                        <g id="Clip-2"></g>
                        <path d="M7.8269625,12.956496 L11.2059,3.683456 C11.344275,3.302656 11.1468375,2.882096 10.7643375,2.744336 L4.5684,0.506576 C4.1859,0.368256 3.7634625,0.565376 3.624525,0.946176 L0.24615,10.218656 C0.1072125,10.599456 0.30465,11.020016 0.68715,11.158336 L6.8830875,13.396096 C7.2655875,13.533856 7.688025,13.337296 7.8269625,12.956496" id="Fill-1" fill="#656665" mask="url(#mask-2)"></path>
                    </g>
                    <g id="Group-6" transform="translate(0.000000, 0.158872)">
                        <mask id="mask-4" fill="white">
                            <use xlink:href="#path-3"></use>
                        </mask>
                        <g id="Clip-5"></g>
                        <path d="M5.5485,11.830112 C5.166,11.691792 4.9685625,11.271232 5.1069375,10.890432 L8.188875,2.432192 L7.62525,0.884912 C7.4863125,0.504112 7.063875,0.306992 6.681375,0.445312 L0.4854375,2.683072 C0.1029375,2.820832 -0.0945,3.241392 0.0444375,3.622192 L3.4228125,12.895232 C3.56175,13.276032 3.9841875,13.472592 4.3666875,13.334832 L7.0408125,12.368832 L5.5485,11.830112 Z" id="Fill-4" fill="#656665" mask="url(#mask-4)"></path>
                    </g>
                </g>
            </g>
        </g>
    </g>
</svg>