<?xml version="1.0" encoding="UTF-8"?>
<svg width="17px" height="14px" viewBox="0 0 17 14" version="1.1" xmlns="http://www.w3.org/2000/svg" xmlns:xlink="http://www.w3.org/1999/xlink">
    <!-- Generator: Sketch 53.1 (72631) - https://sketchapp.com -->
    <title>Group 7</title>
    <desc>Created with Sketch.</desc>
    <defs>
        <polygon id="path-1" points="0 0.102449997 16.7467 0.102449997 16.7467 6.46141733 0 6.46141733"></polygon>
        <polygon id="path-3" points="0.12937 0.344076923 6.29923667 0.344076923 6.29923667 6.20679231 0.12937 6.20679231"></polygon>
    </defs>
    <g id="Page-1" stroke="none" stroke-width="1" fill="none" fill-rule="evenodd">
        <g id="Edit-Profile" transform="translate(-92.000000, -285.000000)">
            <g id="Group" transform="translate(91.000000, 184.000000)">
                <g id="Group-7" transform="translate(1.000000, 101.000000)">
                    <g id="Group-3" transform="translate(0.000000, 7.194385)">
                        <mask id="mask-2" fill="white">
                            <use xlink:href="#path-1"></use>
                        </mask>
                        <g id="Clip-2"></g>
                        <path d="M16.5220733,0.897184615 L16.4705067,0.823953846 C16.1356067,0.358184615 15.46524,0.186953846 14.8980067,0.431953846 L12.1428733,1.66987692 C12.2108733,2.17064615 12.04314,2.63533846 11.6396733,2.96433846 C11.0582733,3.43764615 8.86810667,4.08003077 7.82317333,4.15810769 L7.73250667,3.34449231 C8.78027333,3.26587692 10.5193733,2.75541538 11.1529067,2.36772308 C11.5580733,2.02956923 11.4322733,1.35056923 10.92964,1.1648 C10.70524,1.08187692 10.4389067,1.07056923 10.1550067,1.11741538 C9.56227333,1.21541538 8.40174,1.28918462 7.39647333,0.578953846 C6.54874,-0.0214307692 5.56840667,0.0378 4.73030667,0.256953846 C4.10527333,0.420646154 3.52160667,0.703338462 2.98497333,1.04903077 L-0.000226666667,2.97241538 L-0.000226666667,5.71426154 C-0.000226666667,6.20803077 0.495606667,6.56718462 0.995973333,6.43310769 C1.85164,6.20372308 3.05807333,5.91887692 3.77207333,5.91887692 L9.14974,5.91887692 C9.66484,5.91887692 10.1550067,5.79610769 10.59304,5.55110769 L16.1356067,2.56264615 C16.4450067,2.39141538 16.6507067,2.12218462 16.72834,1.80341538 C16.7799067,1.48518462 16.72834,1.16641538 16.5220733,0.897184615" id="Fill-1" fill="#656665" mask="url(#mask-2)"></path>
                    </g>
                    <g id="Group-6" transform="translate(7.366667, 0.194385)">
                        <mask id="mask-4" fill="white">
                            <use xlink:href="#path-3"></use>
                        </mask>
                        <g id="Clip-5"></g>
                        <path d="M6.29923667,3.27540769 C6.29923667,4.89456154 4.91827,6.20679231 3.21430333,6.20679231 C1.51090333,6.20679231 0.12937,4.89456154 0.12937,3.27540769 C0.12937,1.65625385 1.51090333,0.344023077 3.21430333,0.344023077 C4.91827,0.344023077 6.29923667,1.65625385 6.29923667,3.27540769" id="Fill-4" fill="#656665" mask="url(#mask-4)"></path>
                    </g>
                </g>
            </g>
        </g>
    </g>
</svg>