<?xml version="1.0" encoding="UTF-8"?>
<svg width="12px" height="13px" viewBox="0 0 12 13" version="1.1" xmlns="http://www.w3.org/2000/svg" xmlns:xlink="http://www.w3.org/1999/xlink">
    <!-- Generator: Sketch 53.1 (72631) - https://sketchapp.com -->
    <title>won</title>
    <desc>Created with Sketch.</desc>
    <g id="Page-1" stroke="none" stroke-width="1" fill="none" fill-rule="evenodd">
        <g id="Transactions" transform="translate(-1033.000000, -531.000000)" fill="#43BC9C">
            <g id="won" transform="translate(1033.000000, 531.000000)">
                <path d="M6.73037647,5.28348889 L5.39555294,7.05582222 L4.85767059,6.42748889 C4.57743529,6.14004444 4.12214118,6.14004444 3.8412,6.42748889 C3.56025882,6.71421111 3.56025882,7.18004444 3.8412,7.46748889 L4.79625882,8.58404444 C4.84496471,8.67432222 4.90990588,8.75665556 4.99602353,8.82093333 C5.20002353,8.97332222 5.45202353,8.98704444 5.67225882,8.90182222 C5.68849412,8.89604444 5.70402353,8.89098889 5.72025882,8.88376667 C5.77672941,8.85704444 5.82614118,8.82093333 5.87484706,8.77904444 C5.89602353,8.76171111 5.92143529,8.75376667 5.9412,8.73426667 C5.9532,8.72126667 5.95743529,8.70465556 5.96872941,8.69093333 C5.97861176,8.67937778 5.99202353,8.6736 6.0012,8.66132222 L7.89155294,6.1516 C8.12590588,5.82371111 8.05602353,5.36365556 7.73555294,5.12387778 C7.41437647,4.8841 6.96472941,4.9556 6.73037647,5.28348889" id="Fill-1"></path>
                <g id="Group-5" transform="translate(0.000000, 0.300950)">
                    <path d="M5.79409412,10.7545389 C3.41668235,10.7545389 1.48891765,8.78215 1.48891765,6.34970556 C1.48891765,3.91653889 3.41668235,1.94415 5.79409412,1.94415 C8.17221176,1.94415 10.0992706,3.91653889 10.0992706,6.34970556 C10.0992706,8.78215 8.17221176,10.7545389 5.79409412,10.7545389 M5.79409412,0.420983333 C2.59432941,0.420983333 0.000211764709,3.07515 0.000211764709,6.34970556 C0.000211764709,9.62353889 2.59432941,12.2777056 5.79409412,12.2777056 C8.99385882,12.2777056 11.5879765,9.62353889 11.5879765,6.34970556 C11.5879765,3.07515 8.99385882,0.420983333 5.79409412,0.420983333" id="Fill-3"></path>
                </g>
            </g>
        </g>
    </g>
</svg>