<svg height="19" viewBox="0 0 20 19" width="20" xmlns="http://www.w3.org/2000/svg"><g fill="none" fill-rule="evenodd"><path d="m12.0318 17.2029-3.001-2.814.565-11.396-.565-1.219s1.357-1.359 3.31-1.562c1.859 1.031 2.922 6.125 2.922 6.125l1.531 2.578 1.922 1.701-4.235 5.877z" fill="#fff"/><g fill="#231f20"><path d="m17.2675 3.9561c-.568-1.276-1.99-2.468-2.785-2.99-1.149-.754-1.862-1.019-3.047-.492 0 0 1.39.711 2.066 2.298.33.773-.823 3.011-3.678-.847-1.157-1.563-2.798-2.251-4.573-1.611-1.48.534-3.749 2.494-4.393 4.027-.659 1.568-.598 3.098.307 4.859.799 1.556 2.737 3.819 5.221 5.209 1.555.87 4.531 2.202 8.063-1.774 3.531-3.976 3.544-7.052 2.819-8.679"/><path d="m19.2769 11.1359c-.295-.294-.656-.611-1.053-.936-1.703 3.866-4.552 6.033-6.773 6.401 0 0 .825.887 1.319 1.295.659.544 1.475.559 2.255.208 1.909-.861 3.67-2.562 4.509-4.77.293-.773.329-1.615-.257-2.198"/></g></g></svg>