<svg height="19" viewBox="0 0 19 19" width="19" xmlns="http://www.w3.org/2000/svg"><g fill="none" fill-rule="evenodd"><path d="m17.8599 9.8387c0 4.694-3.806 8.5-8.5 8.5s-8.5-3.806-8.5-8.5 3.806-8.5 8.5-8.5 8.5 3.806 8.5 8.5" fill="#fff"/><path d="m9.6449 17.5397c-.212 0-.42-.015-.628-.032v-4.876h2.831v-2.388h-2.866v-1.928s0-.628.754-.628h2.918l1.273-2.472h-5.616s-2.318.153-2.318 2.793v8.589.043c-2.52-1.319-4.243-3.954-4.243-6.996 0-4.36 3.535-7.895 7.895-7.895s7.895 3.535 7.895 7.895-3.535 7.895-7.895 7.895m0-17.242c-5.162 0-9.347 4.185-9.347 9.347s4.185 9.347 9.347 9.347 9.347-4.185 9.347-9.347-4.185-9.347-9.347-9.347" fill="#231f20"/></g></svg>