<svg height="20" viewBox="0 0 19 20" width="19" xmlns="http://www.w3.org/2000/svg"><g fill="none" fill-rule="evenodd"><path d="m8.286 9.9077h5.334v-8.61h-5.334z" fill="#fff"/><g fill="#231f20"><path d="m11.0682 15.9596c-.26-.432-.817-.627-1.382-.626v-.006c-.016 0-.03.003-.046.003-.015 0-.03-.003-.045-.003v.006c-.566-.001-1.122.194-1.382.626-.002.004-.137 1.69-1.738 2.342-1.988.388-3.222 1.007-3.222 1.007v.479h12.774v-.479s-1.232-.607-3.199-.995c-1.625-.645-1.758-2.35-1.76-2.354"/><path d="m16.8481 7.9491c-.563.041-1.056.132-1.502.253l.672-4.216c.557.247 1.065.518 1.424.8zm-4.02.266c-.884.451-1.655 1.417-2.146 2.139v-8.147c1.773-.035 2.938.289 2.938.289s-.603 4.351-.792 5.719zm-10.386-.266-.643-3.145c.365-.287.889-.564 1.464-.817l.672 4.212c-.444-.119-.935-.209-1.493-.25zm16.285-3.584c-.532-.494-1.508-.963-2.554-1.355l.138-.866c0-.907-3.539-1.642-6.671-1.642-3.131 0-6.67.735-6.67 1.642l.138.869c-1.042.391-2.015.859-2.545 1.352l-.142.132.891 4.307.432.013c1.779 0 2.913.72 3.684 1.508l2.137 3.297c.231.358.688.522 1.078.35.604-.267 1.358-.288 1.974-.011.388.174.847-.007 1.073-.368l1.67-2.669c.877-1.002 2.213-2.107 4.185-2.107l.433-.013.891-4.307z"/></g></g></svg>