<svg height="20" viewBox="0 0 14 20" width="14" xmlns="http://www.w3.org/2000/svg" xmlns:xlink="http://www.w3.org/1999/xlink"><mask id="a" fill="#fff"><path d="m.00005328.3414h13.18769922v19.6586h-13.18769922z" fill="#fff" fill-rule="evenodd"/></mask><g fill="none" fill-rule="evenodd" transform="translate(0 -1)"><path d="m9.4721 15.3589c0 2.212-1.38 4.005-3.083 4.005s-3.084-1.793-3.084-4.005 1.381-4.005 3.084-4.005 3.083 1.793 3.083 4.005" fill="#fff"/><path d="m8.5714 15.8494c-.672 3.126-5.448 2.416-4.48-1.319 0 0 .702 1.202 1.368.758.665-.444.009-3.403 1.571-4.882.012 2.496 1.976 3.418 1.541 5.443m1.875-10.244c-1.16-1.805-2.075-3.656-2.011-5.264-.952.629-4.363 2.93-4.566 9.364-1.14-.302-1.99-1.867-2.2-2.964-1.279.456-4.678 12.378 4.626 13.246 2.404.178 7.143-1.452 6.882-7.21-.134-2.964-1.495-5.249-2.731-7.172" fill="#231f20" mask="url(#a)" transform="translate(0 .9482)"/></g></svg>