<svg height="19" viewBox="0 0 20 19" width="20" xmlns="http://www.w3.org/2000/svg"><g fill="none" fill-rule="evenodd"><path d="m4.8104 6.1159.664 4.917s2.601 1.75 3.76 1.833 8.368 1.167 8.368 1.167l1.208-.667v-3.303l-1.333-3.253-2.459-.694z" fill="#fff"/><path d="m17.9198 13.1235c-.996-.11-1.763-.274-3.732-.652l-1.944-5.467.317-.005h3.89c.58 0 .912.344 1.042.677.34.872.844 2.519.998 4.902.02.317-.255.58-.571.545m-5.847-1.051c-1.148-.207-1.305-.94-1.656-1.765-.226-.495-1.182-3.262-1.182-3.262l2.113-.029 1.933 5.282c-.367-.069-.766-.144-1.208-.226m-6.408-3.09c-.124-.173-.19-.289-.19-.542 0-.545.441-.987.987-.987.35 0 .643.193.819.468.006 0 1.287 3.375 1.287 3.375s-2.302-1.47-2.903-2.314m12.894-2.333c-.16-.44-.587-.732-1.056-.732h-.176c-1.455-3.449-5.003-5.798-9.062-5.419-4.35.406-7.848 4.087-8.053 8.451-.115 2.455.764 4.699 2.267 6.373.131.146.307.247.497.296l12.791 3.193c.365.091.731-.144.801-.513 0 0 .635-3.542.714-3.788 1.09.248 1.938.273 1.938.273.337.058.651-.181.675-.523.077-1.146.043-3.818-1.336-7.611" fill="#231f20"/></g></svg>