<svg height="20" viewBox="0 0 20 20" width="20" xmlns="http://www.w3.org/2000/svg"><g fill="none" fill-rule="evenodd"><path d="m19.047 9.6448c0 5.193-4.209 9.402-9.402 9.402s-9.402-4.209-9.402-9.402 4.209-9.402 9.402-9.402 9.402 4.209 9.402 9.402" fill="#fff"/><g fill="#231f20"><path d="m3.907 8.4195c5.316-.465 5.898-2.824 5.812-4.827-.049-1.123-.314-2.026-.57-2.898-.039-.133-.077-.265-.115-.397-4.902.106-8.845 4.105-8.845 9.032 0 .202.018.401.031.6 1.032-1.001 2.408-1.398 3.687-1.51"/><path d="m15.3781 13.8423c-.004 1.624-.453 2.888-.798 3.887 2.7-1.564 4.52-4.478 4.52-7.822 0-.465-.046-.918-.114-1.364-2.196.578-3.599 1.801-3.608 5.299"/><path d="m13.8014 13.6876c-.032-3.795 1.948-5.999 4.826-6.739-1.065-3.466-4.078-6.072-7.761-6.559.273.929.576 1.98.632 3.292.17 3.898-2.219 6.008-7.302 6.453-1.794.157-2.985.844-3.65 2.072 1.093 3.992 4.737 6.931 9.076 6.931 1.008 0 1.977-.162 2.887-.455.507-.99 1.313-2.486 1.292-4.995"/></g></g></svg>