<?xml version="1.0" standalone="no"?>
<!DOCTYPE svg PUBLIC "-//W3C//DTD SVG 20010904//EN"
 "http://www.w3.org/TR/2001/REC-SVG-20010904/DTD/svg10.dtd">
<svg version="1.0" xmlns="http://www.w3.org/2000/svg"
 width="1633.000000pt" height="533.000000pt" viewBox="0 0 1633.000000 533.000000"
 preserveAspectRatio="xMidYMid meet">

<g transform="translate(0.000000,533.000000) scale(0.100000,-0.100000)"
fill="#000000" stroke="none">
<path d="M0 2665 l0 -2665 6643 1 c3653 1 6631 3 6617 5 -102 16 -162 31 -281
70 -75 25 -145 54 -154 64 -15 17 -17 32 -12 97 6 89 34 179 84 267 63 113 62
103 16 144 -22 21 -43 51 -47 67 -8 38 9 131 30 163 12 18 14 36 9 71 -31 207
-163 529 -265 645 -28 32 -50 61 -50 67 0 6 -47 7 -122 3 -469 -25 -923 186
-1198 557 -34 46 -79 114 -99 151 l-36 68 -190 2 c-505 7 -792 -22 -771 -79
21 -56 192 -221 346 -336 47 -35 132 -106 190 -159 104 -93 105 -94 158 -95
43 -1 63 -7 107 -37 47 -31 56 -42 70 -88 19 -64 19 -72 0 -135 -14 -48 -18
-52 -76 -77 -60 -26 -60 -26 -53 -59 4 -17 7 -72 7 -122 -1 -71 -7 -108 -29
-174 -27 -82 -95 -198 -148 -253 l-26 -28 -63 24 c-216 81 -474 256 -742 503
-119 109 -345 349 -354 374 -2 6 28 42 68 80 161 155 367 228 563 199 194 -28
382 -115 504 -232 33 -32 43 -37 52 -25 9 11 -1 28 -48 84 -32 39 -76 81 -97
94 -46 28 -117 81 -158 118 -16 14 -77 67 -135 118 -150 129 -173 153 -200
201 -29 51 -23 66 36 99 134 76 412 100 777 67 98 -9 180 -14 183 -11 2 2 -5
24 -15 48 -63 142 -101 349 -101 550 0 93 -4 140 -12 152 -22 27 -164 39 -483
41 l-300 1 -47 -46 c-27 -26 -48 -55 -48 -66 0 -43 -30 -117 -69 -167 -46 -60
-164 -147 -262 -194 -67 -32 -131 -90 -187 -167 -67 -93 -131 -119 -170 -70
l-20 26 -41 -22 c-57 -29 -121 -13 -121 32 0 20 -24 26 -35 9 -9 -15 -78 -12
-99 3 -21 16 -23 44 -7 105 12 41 11 45 -18 78 -17 19 -31 38 -31 43 0 4 12
41 26 82 49 136 127 234 365 453 47 43 93 82 102 88 21 11 57 80 57 108 0 12
-7 35 -16 52 -22 42 -20 97 5 145 43 85 145 96 221 24 37 -35 40 -42 40 -90 0
-80 21 -118 77 -143 75 -32 111 -64 123 -107 8 -31 16 -40 39 -44 16 -3 41
-19 57 -35 l29 -29 160 5 c113 3 229 -2 393 -17 128 -12 239 -21 247 -21 11 0
15 13 15 48 1 204 124 437 307 580 43 33 101 84 128 112 28 29 84 78 125 109
427 327 995 380 1475 139 114 -58 161 -88 261 -169 238 -193 417 -485 480
-784 44 -206 61 -507 35 -623 -8 -34 -11 -65 -8 -69 4 -3 35 3 70 15 86 28
252 59 460 86 l172 22 7 43 c16 94 82 157 153 147 37 -6 42 -4 61 26 29 46 52
120 64 208 22 160 82 224 212 225 l66 0 22 110 c38 197 96 342 148 369 24 12
42 12 147 -4 170 -25 356 -75 455 -122 47 -22 95 -45 107 -51 27 -12 53 -74
53 -128 0 -23 -7 -89 -16 -148 -24 -163 -27 -150 36 -186 36 -20 61 -42 72
-65 24 -46 22 -124 -2 -178 -20 -44 -20 -44 0 -69 48 -61 29 -176 -40 -241
-31 -28 -40 -45 -40 -70 0 -72 -69 -166 -147 -198 -20 -9 -38 -26 -47 -47 -40
-93 -154 -139 -256 -103 -25 9 -57 16 -71 16 -14 0 -48 12 -75 26 -45 24 -52
25 -103 15 -78 -16 -158 -13 -217 7 -81 28 -162 82 -206 137 -59 74 -114 115
-156 115 -58 0 -109 21 -163 67 -28 23 -54 43 -58 43 -3 0 -108 -22 -231 -50
-124 -27 -261 -57 -305 -66 -218 -47 -216 -46 -255 -107 -231 -366 -377 -522
-616 -661 -98 -57 -223 -108 -334 -137 -47 -13 -87 -24 -89 -25 -2 -2 12 -21
30 -43 54 -63 127 -191 176 -308 76 -183 80 -195 99 -286 16 -82 19 -88 38
-82 54 18 126 27 158 21 19 -3 56 -20 81 -37 l46 -30 63 40 c91 58 242 126
344 157 291 87 720 -6 952 -206 119 -103 130 -116 142 -158 12 -37 10 -50 -15
-128 -15 -49 -40 -107 -55 -129 -41 -60 -129 -146 -202 -198 -169 -121 -501
-242 -769 -281 -83 -12 68 -14 1244 -15 l1337 -1 0 2665 0 2665 -642 0 -643 0
45 -38 c137 -113 237 -274 274 -439 20 -92 20 -244 0 -336 -33 -147 -128 -307
-242 -408 -65 -57 -147 -103 -250 -141 -82 -30 -95 -32 -227 -32 -131 0 -146
2 -230 31 -132 45 -207 93 -311 197 -76 77 -99 107 -138 186 -110 225 -116
456 -17 674 48 107 132 215 215 277 l39 29 -7101 0 -7102 0 0 -2665z"/>
<path d="M11635 4029 c-169 -28 -339 -134 -447 -277 -100 -134 -143 -280 -135
-457 8 -182 66 -318 194 -451 99 -103 190 -154 344 -193 279 -71 590 58 752
312 20 31 37 59 37 62 0 2 11 28 24 57 37 81 49 163 44 295 -4 87 -11 135 -27
183 -113 327 -446 526 -786 469z m196 -189 c117 -22 185 -57 272 -140 91 -86
127 -143 150 -235 41 -162 30 -278 -34 -374 -50 -75 -170 -189 -245 -233 -172
-100 -298 -107 -461 -27 -193 93 -303 268 -303 478 0 157 45 266 155 376 81
81 144 118 247 145 83 22 142 24 219 10z"/>
<path d="M11600 3762 c-83 -28 -119 -49 -183 -111 -193 -183 -196 -480 -7
-672 219 -222 600 -166 743 110 47 89 61 156 54 255 -11 180 -121 333 -288
403 -85 35 -236 42 -319 15z m423 -434 c33 -17 46 -39 47 -79 0 -30 -7 -43
-34 -67 -47 -41 -86 -48 -134 -25 -34 17 -37 21 -36 61 2 88 87 148 157 110z"/>
<path d="M12374 3794 c48 -62 100 -171 122 -254 10 -36 19 -67 20 -68 2 -2 31
16 66 41 79 56 167 100 243 122 l59 18 -29 24 c-46 37 -201 110 -285 133 -41
11 -111 23 -154 27 l-79 6 37 -49z"/>
<path d="M9660 3803 c-65 -33 -90 -128 -50 -188 55 -83 5 -173 -165 -296 -80
-57 -204 -183 -255 -260 -54 -79 -112 -203 -104 -223 11 -30 29 -16 62 47 43
85 126 183 210 251 63 51 112 71 112 46 0 -5 -4 -10 -9 -10 -5 0 -48 -36 -94
-80 -136 -128 -230 -284 -244 -402 -6 -49 -6 -50 18 -43 50 15 89 51 115 104
14 30 39 75 56 100 47 68 169 191 190 191 10 0 18 -3 18 -6 0 -4 -30 -39 -67
-78 -112 -118 -192 -257 -193 -334 0 -33 1 -33 33 -27 63 13 81 33 130 145 28
62 142 190 170 190 9 0 17 -3 17 -6 0 -3 -27 -36 -61 -72 -74 -81 -109 -149
-109 -214 0 -27 4 -48 9 -48 8 0 79 75 143 153 24 29 62 57 107 80 83 42 208
125 262 174 21 19 50 55 66 81 39 66 39 158 0 225 -21 36 -27 58 -27 107 0 72
-15 92 -106 138 -50 26 -61 37 -76 74 -9 23 -18 67 -21 96 -7 86 -65 122 -137
85z m214 -489 c29 -11 16 -24 -25 -24 -48 0 -75 -13 -111 -53 -32 -35 -49 -28
-28 11 26 46 118 83 164 66z"/>
<path d="M15281 3744 c-36 -46 -120 -349 -101 -368 5 -5 54 -13 107 -16 70 -4
106 -11 126 -24 25 -17 27 -24 27 -80 0 -41 -6 -70 -17 -86 -68 -103 -152
-139 -269 -117 l-41 8 -11 -43 c-6 -24 -14 -73 -17 -109 -5 -52 -3 -68 9 -78
8 -7 56 -20 105 -29 l91 -16 51 44 c49 41 52 42 89 31 48 -14 90 -47 90 -71 0
-20 11 -25 82 -35 28 -3 56 -2 67 5 28 14 46 85 66 250 9 74 25 173 36 220 27
113 70 325 76 373 3 22 0 44 -8 53 -37 45 -178 82 -393 103 -145 15 -142 15
-165 -15z"/>
<path d="M12880 3580 c-104 -27 -228 -92 -298 -155 l-59 -54 -6 -88 c-11 -152
-61 -292 -140 -396 -41 -52 -44 -73 -23 -157 87 -355 420 -583 777 -531 268
40 484 222 576 486 25 72 27 93 27 215 0 122 -2 143 -28 215 -62 181 -171 310
-339 405 -128 72 -344 98 -487 60z m272 -191 c196 -41 357 -206 404 -416 31
-142 -4 -298 -97 -426 -106 -145 -291 -229 -473 -214 -268 23 -470 230 -491
503 -11 142 40 284 141 393 76 83 172 139 279 164 40 9 185 7 237 -4z"/>
<path d="M12911 3324 c-166 -45 -303 -183 -340 -345 -25 -106 -6 -245 45 -340
56 -103 184 -200 299 -229 63 -15 179 -15 236 0 109 29 229 119 283 213 108
186 82 417 -65 572 -113 120 -299 172 -458 129z m-166 -330 c47 -19 32 -114
-22 -135 -22 -8 -35 -7 -60 5 -39 19 -44 53 -13 104 20 32 53 42 95 26z"/>
<path d="M10040 3374 c-14 -35 -13 -38 13 -61 12 -11 27 -29 34 -39 11 -19 11
-19 27 1 23 29 19 59 -10 94 -31 38 -51 39 -64 5z"/>
<path d="M14970 3394 c-91 -30 -119 -65 -140 -169 -6 -33 -15 -83 -21 -110 -5
-28 -25 -76 -44 -108 -55 -91 -70 -149 -56 -211 12 -54 86 -186 104 -186 5 0
43 -36 84 -79 113 -122 217 -160 357 -131 l58 12 -6 34 c-14 72 29 148 91 160
28 5 32 3 49 -32 12 -24 36 -49 64 -66 41 -25 56 -28 143 -30 93 -1 101 0 164
33 66 33 110 80 127 135 6 20 2 21 -74 28 l-80 6 -36 -40 c-41 -45 -42 -46
-179 -25 -55 8 -165 21 -245 30 -172 19 -233 35 -300 80 -49 33 -51 33 -86 19
-22 -9 -41 -11 -50 -6 -13 7 -7 14 28 35 l44 25 1 76 c1 61 -2 76 -14 76 -26
0 -8 24 35 48 23 13 55 40 71 61 31 38 31 38 77 28 82 -19 181 21 235 96 35
48 37 89 7 117 -18 16 -35 20 -96 20 -66 0 -84 5 -159 40 -80 37 -117 45 -153
34z"/>
<path d="M15936 3258 c-2 -7 -9 -35 -15 -63 -6 -27 -21 -85 -33 -127 -12 -43
-19 -80 -16 -84 4 -3 27 -2 52 1 111 17 159 158 84 247 -27 31 -66 46 -72 26z"/>
<path d="M15990 2959 c-14 -6 -49 -9 -79 -7 l-55 3 -23 -75 c-13 -41 -23 -96
-23 -121 0 -40 3 -48 23 -52 63 -16 163 38 196 105 40 83 17 169 -39 147z"/>
<path d="M14609 2910 c-52 -27 -85 -103 -58 -133 5 -7 18 -27 27 -46 27 -54
98 -94 130 -73 9 6 5 22 -19 65 -26 49 -30 67 -31 132 0 41 -3 75 -6 75 -4 -1
-23 -9 -43 -20z"/>
<path d="M12213 2727 c-70 -57 -185 -113 -280 -138 -142 -36 -353 -21 -489 36
l-37 15 7 -32 c19 -100 150 -305 262 -408 307 -285 796 -331 1144 -108 l65 41
-70 22 c-187 57 -335 174 -441 347 -36 59 -77 165 -89 231 -4 20 -10 37 -14
36 -3 0 -29 -19 -58 -42z m-121 -321 c52 -39 103 -56 170 -57 l61 -1 -31 -24
c-16 -13 -42 -45 -58 -71 -41 -72 -100 -139 -134 -153 -63 -26 -139 14 -158
84 -11 40 1 116 37 225 12 35 21 76 21 90 0 23 3 21 30 -21 16 -25 44 -58 62
-72z"/>
<path d="M15375 2530 c-17 -34 -20 -83 -5 -111 16 -28 99 -67 169 -78 48 -8
72 -7 112 5 45 13 99 54 99 73 0 7 -126 31 -164 31 -34 0 -144 58 -163 86 -20
31 -29 30 -48 -6z"/>
<path d="M9990 1936 c-174 -51 -380 -174 -380 -228 0 -37 246 -284 547 -547
132 -116 397 -284 499 -316 l57 -18 28 34 c39 48 104 184 125 260 11 41 18
100 17 164 0 141 -34 240 -121 347 -35 42 -83 95 -109 117 -70 60 -197 131
-293 165 -73 25 -102 30 -205 32 -78 2 -136 -1 -165 -10z"/>
<path d="M10846 1750 c-28 -9 -86 -56 -86 -71 0 -3 20 -37 45 -74 25 -37 55
-89 67 -116 23 -55 36 -57 94 -13 48 35 60 74 47 151 -13 75 -38 108 -92 123
-41 11 -36 11 -75 0z"/>
<path d="M13864 1100 c-191 -27 -486 -170 -680 -330 -158 -131 -295 -359 -328
-548 -4 -26 0 -38 22 -61 40 -42 126 -67 332 -97 212 -30 329 -29 535 5 260
44 567 157 735 271 185 125 305 351 242 452 -48 76 -196 177 -341 233 -171 66
-374 95 -517 75z m696 -289 c66 -22 108 -46 98 -57 -4 -3 -19 1 -35 9 -87 45
-372 57 -548 23 -153 -29 -417 -102 -495 -136 -198 -86 -443 -226 -609 -347
-23 -17 -24 -17 -13 2 38 70 232 209 414 298 258 126 440 180 773 231 17 2
102 3 190 1 131 -2 172 -7 225 -24z"/>
<path d="M13022 914 c-60 -30 -87 -63 -101 -126 -13 -55 -6 -85 27 -121 l26
-27 101 99 c55 54 116 112 135 129 34 30 35 30 16 51 -29 32 -135 30 -204 -5z"/>
</g>
</svg>
