<?xml version="1.0" encoding="UTF-8"?>
<svg width="7px" height="5px" viewBox="0 0 7 5" version="1.1" xmlns="http://www.w3.org/2000/svg" xmlns:xlink="http://www.w3.org/1999/xlink">
    <!-- Generator: Sketch 53.1 (72631) - https://sketchapp.com -->
    <title>Fill 560 Copy</title>
    <desc>Created with Sketch.</desc>
    <g id="Page-1" stroke="none" stroke-width="1" fill="none" fill-rule="evenodd">
        <g id="Home---Experiment" transform="translate(-167.000000, -589.000000)" fill="#7F7F7F">
            <g id="Left-Bar" transform="translate(71.000000, 169.000000)">
                <g id="Country" transform="translate(0.000000, 129.000000)">
                    <g id="Group-7" transform="translate(0.000000, 273.000000)">
                        <g id="Group-27">
                            <path d="M101.360374,22.760029 L98.6250052,20.4999892 L101.360374,18.2403809 C101.54302,18.074265 101.547182,17.800713 101.368697,17.6302824 C101.191138,17.4594203 100.897518,17.4564 100.714872,17.6225159 L97.6396431,20.1910567 C97.550401,20.2721731 97.5,20.3839238 97.5,20.4999892 C97.5,20.6164861 97.550401,20.7282368 97.6396431,20.8089217 L100.714872,23.3774625 C100.805039,23.4594418 100.921562,23.5 101.037623,23.5 C101.157846,23.5 101.27853,23.456853 101.368697,23.3701275 C101.547182,23.1992654 101.54302,22.9257135 101.360374,22.760029 Z" id="Fill-560-Copy" transform="translate(99.500000, 20.500000) scale(-1, 1) rotate(-90.000000) translate(-99.500000, -20.500000) "></path>
                        </g>
                    </g>
                </g>
            </g>
        </g>
    </g>
</svg>