<?xml version="1.0" encoding="UTF-8"?>
<svg width="16px" height="13px" viewBox="0 0 16 13" version="1.1" xmlns="http://www.w3.org/2000/svg" xmlns:xlink="http://www.w3.org/1999/xlink">
    <!-- Generator: Sketch 53.1 (72631) - https://sketchapp.com -->
    <title>Fill 1</title>
    <desc>Created with Sketch.</desc>
    <g id="Page-1" stroke="none" stroke-width="1" fill="none" fill-rule="evenodd">
        <g id="Edit-Profile" transform="translate(-92.000000, -184.000000)" fill="#656665">
            <g id="Group" transform="translate(91.000000, 184.000000)">
                <g id="Group-3" transform="translate(1.000000, 0.000000)">
                    <path d="M14.1659077,4.78575677 C14.1036098,5.2100004 13.7630832,6.44510092 12.0081832,6.85594195 C12.3128093,6.17911099 12.5392991,5.40639994 12.663367,4.54296364 C12.754702,3.90324755 12.9521547,2.16245688 13.0778064,1.03096871 L14.7609054,1.03096871 C14.5898502,2.07224712 14.2498515,4.21614656 14.1659077,4.78575677 L14.1659077,4.78575677 Z M1.83356431,4.78575677 C1.74962054,4.21614656 1.41014981,2.07224712 1.23856662,1.03096871 L2.92166568,1.03096871 C3.04784531,2.16245688 3.24477001,3.90324755 3.33663301,4.54296364 C3.4601729,5.40639994 3.68666271,6.17911099 3.9918168,6.85594195 C2.23638883,6.44510092 1.89586221,5.2100004 1.83356431,4.78575677 L1.83356431,4.78575677 Z M13.1913153,0 L11.6893024,0 L8,0 L4.31069755,0 L2.8081568,0 L0,0 L0.0981983766,0.59744637 C0.104005807,0.632499306 0.678941464,4.18779492 0.788226754,4.93266981 C0.858971821,5.41361672 1.37952881,7.72917245 4.64330496,7.99361592 C5.38296047,9.02200722 6.3591368,9.68028074 7.4377351,9.90400095 C6.91981786,10.4818589 5.69339405,11.6118006 3.51402363,12.3221381 C3.26166436,12.4046156 3.31921072,13 3.58529664,13 L7.73549792,13 L11.8856992,13 C12.1517851,13 12.2098594,12.4046156 11.9575002,12.3221381 C9.86365736,11.6396368 8.64620867,10.5679448 8.09503069,9.97204489 C9.35841088,9.86070027 10.5109219,9.16840477 11.3561671,7.99361592 C14.6199432,7.72917245 15.1405002,5.41361672 15.2112453,4.93266981 C15.3210585,4.18779492 15.8954662,0.632499306 15.9012737,0.59744637 L16,0 L13.1913153,0 Z" id="Fill-1"></path>
                </g>
            </g>
        </g>
    </g>
</svg>