<?xml version="1.0" encoding="UTF-8"?>
<svg width="10px" height="10px" viewBox="0 0 10 10" version="1.1" xmlns="http://www.w3.org/2000/svg" xmlns:xlink="http://www.w3.org/1999/xlink">
    <!-- Generator: Sketch 53.1 (72631) - https://sketchapp.com -->
    <title>lost</title>
    <desc>Created with Sketch.</desc>
    <defs>
        <polygon id="path-1" points="0.000166666665 -6.66666666e-05 9.37716667 -6.66666666e-05 9.37716667 9.37726667 0.000166666665 9.37726667"></polygon>
    </defs>
    <g id="Page-1" stroke="none" stroke-width="1" fill="none" fill-rule="evenodd">
        <g id="Transactions" transform="translate(-1034.000000, -578.000000)">
            <g id="lost" transform="translate(1034.000000, 578.000000)">
                <g id="Group-3">
                    <mask id="mask-2" fill="white">
                        <use xlink:href="#path-1"></use>
                    </mask>
                    <g id="Clip-2"></g>
                    <path d="M5.83233333,4.6886 L9.16366667,1.35726667 C9.44833333,1.0726 9.44833333,0.6106 9.16366667,0.325933333 L9.051,0.213266667 C8.76633333,-0.0714 8.305,-0.0714 8.02033333,0.213266667 L4.68833333,3.5446 L1.357,0.213266667 C1.07233333,-0.0714 0.611,-0.0714 0.326333333,0.213266667 L0.213666667,0.325933333 C-0.071,0.6106 -0.071,1.0726 0.213666667,1.35726667 L3.545,4.6886 L0.213666667,8.01993333 C-0.071,8.3046 -0.071,8.7666 0.213666667,9.05126667 L0.326333333,9.16393333 C0.611,9.4486 1.07233333,9.4486 1.357,9.16393333 L4.68833333,5.8326 L8.02033333,9.16393333 C8.305,9.4486 8.76633333,9.4486 9.051,9.16393333 L9.16366667,9.05126667 C9.44833333,8.7666 9.44833333,8.3046 9.16366667,8.01993333 L5.83233333,4.6886 Z" id="Fill-1" fill="#F04E3F" mask="url(#mask-2)"></path>
                </g>
            </g>
        </g>
    </g>
</svg>