<svg width="17" height="16" viewBox="0 0 17 16" fill="none" xmlns="http://www.w3.org/2000/svg">
<path fill-rule="evenodd" clip-rule="evenodd" d="M14.8723 4.64533C14.9758 4.74517 15.1159 4.80082 15.2616 4.8C15.4074 4.80082 15.5475 4.74517 15.651 4.64533C16.7216 3.60262 16.7204 1.91324 15.6482 0.872001C14.5761 -0.16924 12.839 -0.168046 11.7684 0.874667C11.6671 0.974006 11.61 1.10809 11.6094 1.248C11.6085 1.38976 11.6657 1.52602 11.7684 1.62667L12.8652 2.69333L12.24 3.33867C9.81824 1.73387 6.63339 1.73387 4.21162 3.33867L3.57001 2.71467L4.66678 1.648C4.76943 1.54735 4.82666 1.4111 4.82581 1.26933C4.82521 1.12942 4.76809 0.99534 4.66678 0.896001C3.57832 0.0168658 1.98079 0.0875473 0.9789 1.05917C-0.022987 2.03079 -0.100202 3.58426 0.800651 4.64533C0.904142 4.74517 1.04424 4.80082 1.19001 4.8C1.33577 4.80082 1.47587 4.74517 1.57936 4.64533L2.7913 3.472L3.33968 4.00533C1.20517 5.951 0.509542 8.96743 1.58518 11.6133C2.66081 14.2592 5.28936 15.9974 8.21484 15.9974C11.1403 15.9974 13.7689 14.2592 14.8445 11.6133C15.9201 8.96743 15.2245 5.951 13.09 4.00533L13.6384 3.472L14.8723 4.64533ZM1.25581 3.44533C0.957038 2.83361 1.08662 2.1052 1.57936 1.62667C1.88759 1.32652 2.30576 1.15771 2.74194 1.15733C2.98676 1.15598 3.22869 1.20888 3.44936 1.312L2.57743 2.16L2.22097 2.50667L1.25581 3.44533ZM2.19355 9.06667C2.19355 12.3067 4.89429 14.9333 8.22581 14.9333C11.5573 14.9333 14.2581 12.3067 14.2581 9.06667C14.2581 7.51073 13.6225 6.01852 12.4913 4.91831C11.36 3.81809 9.82567 3.2 8.22581 3.2C4.89429 3.2 2.19355 5.8266 2.19355 9.06667ZM14.8723 1.62667C15.365 2.1052 15.4946 2.83361 15.1958 3.44533L14.2581 2.50667L13.9016 2.16L13.0023 1.312C13.6324 1.02952 14.3764 1.15472 14.8723 1.62667ZM8.22581 9.6H11.5161C11.819 9.6 12.0645 9.36122 12.0645 9.06667C12.0645 8.77212 11.819 8.53333 11.5161 8.53333H8.7742V5.33333C8.7742 5.03878 8.52868 4.8 8.22581 4.8C7.92295 4.8 7.67743 5.03878 7.67743 5.33333V9.06667C7.67743 9.36122 7.92295 9.6 8.22581 9.6Z" fill="black"/>
</svg>
