<?xml version="1.0" encoding="UTF-8"?>
<svg width="8px" height="8px" viewBox="0 0 8 8" version="1.1" xmlns="http://www.w3.org/2000/svg" xmlns:xlink="http://www.w3.org/1999/xlink">
    <!-- Generator: Sketch 53.1 (72631) - https://sketchapp.com -->
    <title>Path</title>
    <desc>Created with Sketch.</desc>
    <g id="Page-1" stroke="none" stroke-width="1" fill="none" fill-rule="evenodd">
        <g id="News" transform="translate(-414.000000, -1755.000000)" fill="#FFFFFF">
            <g id="hockey" transform="translate(360.000000, 1396.000000)">
                <g id="Path-2" transform="translate(54.000000, 359.000000)">
                    <path d="M8,2.88 C8,2.96666667 7.97172619,3.04166667 7.91517857,3.105 L5.62946429,5.665 C5.57291667,5.72833333 5.50595238,5.76 5.42857143,5.76 C5.35119048,5.76 5.28422619,5.72833333 5.22767857,5.665 C5.17113095,5.60166667 5.14285714,5.52666667 5.14285714,5.44 L5.14285714,4.16 L4.14285714,4.16 C3.85119048,4.16 3.59002976,4.17 3.359375,4.19 C3.12872024,4.21 2.89955357,4.24583333 2.671875,4.2975 C2.44419643,4.34916667 2.24627976,4.42 2.078125,4.51 C1.90997024,4.6 1.75297619,4.71583333 1.60714286,4.8575 C1.46130952,4.99916667 1.3422619,5.1675 1.25,5.3625 C1.1577381,5.5575 1.08556548,5.78833333 1.03348214,6.055 C0.98139881,6.32166667 0.955357143,6.62333333 0.955357143,6.96 C0.955357143,7.14333333 0.962797619,7.34833333 0.977678571,7.575 C0.977678571,7.595 0.98139881,7.63416667 0.988839286,7.6925 C0.996279762,7.75083333 1,7.795 1,7.825 C1,7.875 0.98735119,7.91666667 0.962053571,7.95 C0.936755952,7.98333333 0.901785714,8 0.857142857,8 C0.80952381,8 0.767857143,7.97166667 0.732142857,7.915 C0.711309524,7.885 0.691964286,7.84833333 0.674107143,7.805 C0.65625,7.76166667 0.636160714,7.71166667 0.613839286,7.655 C0.591517857,7.59833333 0.575892857,7.55833333 0.566964286,7.535 C0.188988095,6.585 0,5.83333333 0,5.28 C0,4.61666667 0.0788690476,4.06166667 0.236607143,3.615 C0.71875,2.27166667 2.02083333,1.6 4.14285714,1.6 L5.14285714,1.6 L5.14285714,0.32 C5.14285714,0.233333333 5.17113095,0.158333333 5.22767857,0.095 C5.28422619,0.0316666667 5.35119048,0 5.42857143,0 C5.50595238,0 5.57291667,0.0316666667 5.62946429,0.095 L7.91517857,2.655 C7.97172619,2.71833333 8,2.79333333 8,2.88 Z" id="Path"></path>
                </g>
            </g>
        </g>
    </g>
</svg>