<svg height="20" viewBox="0 0 19 20" width="19" xmlns="http://www.w3.org/2000/svg"><g fill="none" fill-rule="evenodd"><path d="m18.6436 9.9287c0 5.01-4.062 9.072-9.072 9.072s-9.072-4.062-9.072-9.072 4.062-9.072 9.072-9.072 9.072 4.062 9.072 9.072" fill="#fff"/><g fill="#231f20"><path d="m10.1559 2.0594c.617 1.846.478 3.822-.392 5.563-.016.034-.037.064-.053.096.778.672 1.548 1.41 2.284 2.21.553-.383 1.165-.699 1.835-.923 1.628-.544 3.315-.474 4.814.077-.371-4.624-4.233-8.262-8.952-8.262-.028 0-.055.004-.083.004.217.391.402.802.547 1.235"/><path d="m16.3353 10.3768c-.605 0-1.212.098-1.803.295-.472.158-.904.377-1.302.637 1.2 1.466 2.25 3.132 2.994 4.998 1.409-1.402 2.334-3.286 2.516-5.383-.765-.36-1.581-.547-2.405-.547"/><path d="m11.9344 12.2524c-1.42 1.528-1.986 3.766-1.279 5.88.107.321.251.622.408.915 1.451-.206 2.789-.755 3.93-1.567-.716-1.953-1.8-3.696-3.059-5.228"/><path d="m8.5356 2.3396c-.186-.557-.471-1.056-.8-1.522-1.795.336-3.402 1.202-4.65 2.434 1.373.729 3.268 1.856 5.219 3.388.62-1.359.707-2.876.231-4.3"/><path d="m4.698 9.8878c1.098-.367 2.037-1.036 2.739-1.923-2.054-1.631-4.059-2.805-5.411-3.514-1.061 1.452-1.7 3.23-1.728 5.16 1.329.635 2.895.78 4.4.277"/><path d="m9.123 18.3722c-.89-2.665-.144-5.486 1.686-7.379-.641-.689-1.31-1.33-1.986-1.921-.867 1.085-2.025 1.903-3.374 2.354-.763.255-1.539.376-2.303.376-.836 0-1.653-.158-2.425-.431.668 4.21 4.25 7.441 8.619 7.56-.078-.183-.153-.368-.217-.559"/></g></g></svg>