<svg height="22" viewBox="0 0 22 22" width="22" xmlns="http://www.w3.org/2000/svg"><g fill="none" fill-rule="evenodd"><path d="m6.245 9.6766 2.894 2.788 8.691-8.691-3.083-2.426-5.516 5.265z" fill="#fff"/><g fill="#231f20"><path d="m3.7103 20.7769-2.51-2.51c-.428-.428-.492-1.056-.145-1.403l.151-.151c.347-.347 1.794-.13 2.921 1.059s1.484 2.651 1.136 2.999l-.15.15c-.348.348-.976.283-1.403-.144"/><path d="m9.129 11.6481-1.843-1.866s7.305-7.446 7.558-7.711c1.346.11 2.382 1.51 2.382 1.51zm12.394-5.338c-.455-.924-1.225-2.195-2.44-3.411l-.006-.005c-1.215-1.216-2.486-1.986-3.41-2.44-.771-.379-1.695-.223-2.302.385l-8.819 8.818s.556.506.851.802c1.037 1.036 1.331 2.649.182 3.798l-1.427 1.403s.714.164 1.342.823c.658.627.823 1.341.823 1.341l1.403-1.426c1.149-1.149 2.761-.855 3.798.181.295.296.802.851.802.851l8.818-8.818c.608-.608.764-1.531.385-2.302z"/></g></g></svg>