<svg height="17" viewBox="0 0 22 17" width="22" xmlns="http://www.w3.org/2000/svg"><g fill="none" fill-rule="evenodd"><path d="m2.9799 12.0159 1.667-7.4s.833-1.712 1.166-2.002c.334-.29 4.417-.79 4.417-.79l9.875.459-1.792 11.625-4.386.75-7.989-.667z" fill="#fff"/><path d="m17.5827 10.1633c-1.558.508-3.421.272-3.978.167l.528-3.106c.027-.156-.076-.304-.232-.331-.755-.131-2.892-.509-4.744-.899l.565-3.38c.787.066 1.694.206 2.746.457 4.107.995 6.229.478 6.229.478zm-9.695 3.042.575-3.442c2.481.506 4.349.827 4.91.942l-.614 3.563c-.906-.108-1.931-.315-2.998-.632-.684-.203-1.295-.331-1.873-.431zm.343-3.644c-.658-.201-2.513-.678-4.084-.249l.555-3.282c1.54-.454 3.377-.006 4.094.208-.129.747-.433 2.485-.565 3.323zm4.472-8.422c-3.159-.821-5.646-.735-7.468-.216-1.164.332-2.078 1.222-2.269 2.417l-2.016 12.599s3.057-1.828 8.59-.391c3.017.783 5.693.856 7.202.418 1.243-.36 2.289-1.181 2.493-2.458l1.998-12.488s-2.997 1.555-8.53.119z" fill="#231f20"/></g></svg>