<svg height="20" viewBox="0 0 20 20" width="20" xmlns="http://www.w3.org/2000/svg"><g fill="none" fill-rule="evenodd"><path d="m1.7429 9.3634c0-4.602 3.731-8.333 8.333-8.333 4.603 0 8.334 3.731 8.334 8.333s-3.731 8.333-8.334 8.333c-4.602 0-8.333-3.731-8.333-8.333" fill="#fff"/><g fill="#231f20"><path d="m9.6449 1.5355c4.479 0 8.109 3.631 8.109 8.109 0 4.479-16.218 4.479-16.218 0 0-4.478 3.63-8.109 8.109-8.109m0 17.552c5.215 0 9.443-4.228 9.443-9.443s-4.228-9.442-9.443-9.442-9.443 4.227-9.443 9.442 4.228 9.443 9.443 9.443"/><path d="m6.8979 4.775c0-.502.403-.908.9-.908s.9.406.9.908-.403.908-.9.908-.9-.406-.9-.908"/><path d="m10.5885 4.775c0-.502.403-.908.9-.908s.9.406.9.908-.403.908-.9.908-.9-.406-.9-.908"/><path d="m8.7172 7.4543c0-.516.415-.934.926-.934.512 0 .926.418.926.934s-.414.934-.926.934c-.511 0-.926-.418-.926-.934"/><path d="m4.1454 7.4543c0-.516.415-.934.926-.934.512 0 .926.418.926.934s-.414.934-.926.934c-.511 0-.926-.418-.926-.934"/><path d="m13.289 7.4543c0-.516.415-.934.926-.934.512 0 .926.418.926.934s-.414.934-.926.934c-.511 0-.926-.418-.926-.934"/><path d="m10.9339 10.1167c0-.516.415-.934.926-.934.512 0 .926.418.926.934s-.414.934-.926.934c-.511 0-.926-.418-.926-.934"/><path d="m6.5348 10.1167c0-.516.415-.934.926-.934.512 0 .926.418.926.934s-.414.934-.926.934c-.511 0-.926-.418-.926-.934"/><path d="m6.5348 10.1167c0-.516.415-.934.926-.934.512 0 .926.418.926.934s-.414.934-.926.934c-.511 0-.926-.418-.926-.934"/></g></g></svg>