<?xml version="1.0" encoding="UTF-8"?>
<svg width="1000px" height="1000px" viewBox="0 0 1000 1000" version="1.1" xmlns="http://www.w3.org/2000/svg" xmlns:xlink="http://www.w3.org/1999/xlink">
    <!-- Generator: Sketch 53.1 (72631) - https://sketchapp.com -->
    <title>Eye</title>
    <desc>Created with Sketch.</desc>
    <g id="Page-1" stroke="none" stroke-width="1" fill="none" fill-rule="evenodd">
        <g id="Home---Experiment" transform="translate(-220.000000, -2452.000000)">
            <g id="Main-Content" transform="translate(220.000000, 275.000000)">
                <g id="Right-Column">
                    <g id="Eye" transform="translate(0.000000, 2177.000000)">
                        <path d="M630.244583,630.615047 C611.048982,649.299835 591.208704,662.850082 570.697436,671.265788 C549.317826,680.14827 525.635797,684.568918 499.677661,684.568918 C473.495862,684.568918 449.82699,680.14827 428.64473,671.265788 C407.054613,662.383306 387.148552,648.901702 368.926546,630.807249 C350.717697,612.685338 337.561014,592.613948 329.495967,570.510708 C320.102096,549.35475 315.431473,525.796266 315.431473,499.821527 C315.431473,474.560681 320.102096,450.768808 329.495967,428.459638 C338.205692,405.930807 351.428158,385.900604 369.097583,368.341571 C386.332838,351.057111 406.173116,337.740253 428.64473,328.404723 C450.02434,319.769357 473.719526,315.431082 499.677661,315.431082 C525.398976,315.431082 549.094162,319.769357 570.697436,328.404723 C593.16905,337.740253 613.009328,351.057111 630.244583,368.341571 C648.348178,385.433828 661.767995,405.464031 670.504033,428.459638 C679.871591,450.768808 684.568527,474.560681 684.568527,499.821527 C684.568527,525.10983 679.871591,548.668314 670.504033,570.510708 C660.67599,593.739703 647.26933,613.769907 630.244583,630.615047 Z M691.528412,35.1729819 C632.981173,11.738056 568.81603,0 499.138237,0 C428.80261,0 364.637468,11.738056 306.708593,35.1729819 C245.845777,60.4475563 192.074414,96.4991763 145.394503,143.355299 C97.5041772,190.911587 61.7179997,245.16749 38.1149105,306.177924 C12.6698857,366.625481 0,431.095552 0,499.519495 C0,569.865459 12.6698857,633.69028 38.1149105,691.007688 C59.9418475,750.878638 95.6096149,805.2581 144.907706,854.352004 C194.27158,903.363537 248.227137,939.881933 306.708593,963.94838 C364.084887,988.001098 428.184246,1000 499.138237,1000 C569.421238,1000 633.599537,988.001098 691.528412,963.94838 C747.062771,941.158704 800.834134,904.448105 852.829345,853.830313 C898.943518,808.196046 935.282277,753.940143 961.88509,691.007688 C987.277488,631.836903 1000,568.012081 1000,499.519495 C1000,431.095552 987.277488,366.625481 961.88509,306.177924 C938.216217,243.890719 901.877459,189.634816 852.829345,143.355299 C806.149434,96.4991763 752.391227,60.4475563 691.528412,35.1729819 Z" id="Fill-7" fill="#FDD50B"></path>
                        <path d="M605.226405,398.291684 C598.074597,391.333549 589.82251,385.97592 580.496981,382.218798 C571.506903,378.732948 561.671489,376.996805 550.99074,376.996805 C540.202646,376.996805 530.367232,378.732948 521.484498,382.218798 C512.145551,385.97592 503.893464,391.333549 496.741656,398.291684 C489.401995,405.358329 483.914022,413.415118 480.291154,422.475614 C476.386509,431.454729 474.440895,441.044206 474.440895,451.203355 C474.440895,461.647341 476.386509,471.128309 480.291154,479.646261 C483.632243,488.543994 489.106798,496.62791 496.661148,503.911572 C504.242333,511.195235 512.507838,516.620682 521.484498,520.201477 C530.273306,523.768708 540.10872,525.559105 550.99074,525.559105 C561.765415,525.559105 571.600829,523.768708 580.496981,520.201477 C589.004011,516.810572 597.256097,511.357998 605.226405,503.843754 C612.297706,497.061945 617.866187,489.005157 621.945267,479.646261 C625.849913,470.857037 627.795527,461.376068 627.795527,451.203355 C627.795527,441.044206 625.849913,431.454729 621.945267,422.475614 C618.3224,413.225227 612.753919,405.168438 605.226405,398.291684" id="Fill-8" fill="#E2B622"></path>
                    </g>
                </g>
            </g>
        </g>
    </g>
</svg>