<svg xmlns="http://www.w3.org/2000/svg" xmlns:xlink="http://www.w3.org/1999/xlink" width="196" height="87" viewBox="0 0 196 87"><defs><path id="h4t8a" d="M108.808 24.69c-4.229 0-7.391.978-9.482 2.935-2.116 2.025-3.173 4.984-3.173 8.876v6.905H91.13v8.407h5.023V77.1h11.565V51.813h5.882v-8.407h-5.882v-5.372c0-1.446.253-2.523.76-3.237.462-.665 1.267-.999 2.411-.999.198 0 .607.044 1.222.134.595.154 1.092.31 1.49.467v-9.076c-.53-.133-1.412-.3-2.645-.5-1.145-.09-1.86-.133-2.148-.133"/><path id="h4t8b" d="M118.13 77.101h11.828V25.39H118.13z"/><path id="h4t8c" d="M254.156 43.406h-14.604l-12.126 14.712V25.39H215.86V77.1h11.566V62.12l12.586 14.98h15.499l-16.356-17.482z"/><path id="h4t8d" d="M206.295 46.2a18.378 18.378 0 0 0-6.011-3.902c-2.182-.845-4.574-1.268-7.17-1.268-2.622 0-5.014.423-7.173 1.268a18.38 18.38 0 0 0-6.012 3.902c-1.785 1.715-3.119 3.671-3.998 5.872-.949 2.18-1.421 4.504-1.421 6.972 0 2.537.472 4.839 1.42 6.906.814 2.159 2.143 4.12 3.98 5.89 1.84 1.768 3.852 3.085 6.031 3.953 2.139.867 4.528 1.3 7.172 1.3 2.62 0 5.012-.433 7.17-1.3 2.07-.822 4.074-2.146 6.012-3.972 1.72-1.645 3.073-3.602 4.065-5.871.946-2.134 1.42-4.436 1.42-6.906 0-2.468-.474-4.793-1.42-6.972-.882-2.247-2.237-4.203-4.065-5.872m-6.805 15.403a6.651 6.651 0 0 1-1.499 2.166c-.715.674-1.454 1.162-2.218 1.466-.796.32-1.678.48-2.645.48-.975 0-1.856-.16-2.645-.48a6.867 6.867 0 0 1-2.224-1.459c-.679-.653-1.169-1.376-1.469-2.173-.35-.763-.524-1.612-.524-2.548 0-.91.174-1.768.524-2.572a6.15 6.15 0 0 1 1.475-2.167 6.79 6.79 0 0 1 2.218-1.44c.796-.311 1.678-.468 2.645-.468.958 0 1.84.157 2.645.468a6.79 6.79 0 0 1 2.218 1.44 5.75 5.75 0 0 1 1.5 2.167c.348.804.523 1.661.523 2.572s-.175 1.76-.524 2.548"/><path id="h4t8e" d="M197.27 57.127a2.766 2.766 0 0 0-.904-.586 2.961 2.961 0 0 0-1.079-.191c-.394 0-.753.063-1.078.19a2.763 2.763 0 0 0-.904.587 2.51 2.51 0 0 0-.601.883 2.6 2.6 0 0 0-.214 1.049c0 .38.071.727.214 1.038a2.4 2.4 0 0 0 .598.886c.277.265.58.463.907.594.321.13.68.196 1.078.196.394 0 .754-.066 1.079-.196.31-.124.612-.323.903-.597.259-.247.462-.542.611-.883.143-.32.214-.667.214-1.038a2.6 2.6 0 0 0-.214-1.049 2.337 2.337 0 0 0-.61-.883"/><path id="h4t8f" d="M166.205 46.2a18.38 18.38 0 0 0-6.012-3.902c-2.181-.845-4.573-1.268-7.17-1.268-2.621 0-5.013.423-7.172 1.268a18.373 18.373 0 0 0-6.012 3.902c-1.785 1.715-3.119 3.671-3.998 5.872-.949 2.18-1.421 4.504-1.421 6.972 0 2.537.472 4.839 1.42 6.906.814 2.159 2.143 4.12 3.98 5.89 1.84 1.768 3.852 3.085 6.031 3.953 2.139.867 4.528 1.3 7.172 1.3 2.62 0 5.012-.433 7.17-1.3 2.07-.822 4.074-2.146 6.012-3.972 1.72-1.645 3.073-3.602 4.065-5.871.946-2.134 1.42-4.436 1.42-6.906 0-2.468-.474-4.793-1.42-6.972-.882-2.247-2.237-4.203-4.065-5.872M159.4 61.603a6.651 6.651 0 0 1-1.499 2.166c-.715.674-1.454 1.162-2.218 1.466-.796.32-1.678.48-2.645.48-.975 0-1.856-.16-2.645-.48a6.867 6.867 0 0 1-2.224-1.459c-.679-.653-1.169-1.376-1.469-2.173-.35-.763-.524-1.612-.524-2.548 0-.91.174-1.768.524-2.572a6.144 6.144 0 0 1 1.475-2.167 6.79 6.79 0 0 1 2.218-1.44c.796-.311 1.678-.468 2.645-.468.958 0 1.84.157 2.645.468a6.79 6.79 0 0 1 2.218 1.44 5.75 5.75 0 0 1 1.5 2.167c.348.804.523 1.661.523 2.572s-.175 1.76-.524 2.548"/><path id="h4t8g" d="M157.18 57.127a2.763 2.763 0 0 0-.905-.586 2.957 2.957 0 0 0-1.078-.191c-.394 0-.754.063-1.078.19-.341.138-.643.333-.904.587-.269.258-.47.552-.601.883a2.6 2.6 0 0 0-.214 1.049c0 .38.071.727.214 1.038a2.4 2.4 0 0 0 .598.886c.277.265.58.463.907.594.321.13.68.196 1.078.196.394 0 .754-.066 1.078-.196.312-.124.613-.323.904-.597.259-.247.462-.542.611-.883.143-.32.214-.667.214-1.038a2.6 2.6 0 0 0-.214-1.049 2.337 2.337 0 0 0-.61-.883"/><path id="h4t8h" d="M279.309 64.566c-.792-2.123-2.76-4.581-5.907-7.376-.02-.01-.418-.374-1.195-1.092-2.429-2.104-3.397-3.674-2.906-4.71.35-.738.906-1.142 1.669-1.215.792-.082 1.801.173 3.027.765a13.914 13.914 0 0 1 3.945 2.825c1.216 1.177 2.304 2.599 3.263 4.265l5.68-6.293c-1.818-2.16-3.513-3.841-5.08-5.043-1.868-1.443-3.72-2.61-5.558-3.498-3.796-1.834-7.168-2.383-10.116-1.649-3.038.718-5.247 2.534-6.629 5.45-1.07 2.256-1.21 4.447-.419 6.572.691 2.028 2.42 4.3 5.189 6.815.418.398 1.06.941 1.925 1.629 2.476 2.004 3.397 3.674 2.765 5.009-.379.797-1.013 1.238-1.903 1.322-.89.133-2.006-.125-3.35-.775-1.879-.908-3.562-2.174-5.05-3.8-1.528-1.597-2.736-3.457-3.625-5.58l-6.054 7.083a27.388 27.388 0 0 0 5.048 5.843c1.935 1.684 4.227 3.166 6.876 4.446 3.815 1.843 7.383 2.391 10.702 1.642 3.25-.757 5.608-2.681 7.073-5.772 1.135-2.392 1.344-4.68.63-6.863"/><path id="h4t8i" d="M257.162 97.345h3.363l-6.275 10.237c-1.537 2.496-2.803 3.237-4.865 3.237-1.03 0-2.17-.343-2.767-.85l1.537-2.423c.398.343.923.56 1.52.56.632 0 1.03-.271 1.446-.886l-2.224-9.875h3.418l1.23 6.023zm-15.817 7.193c1.377 0 2.337-1.103 2.337-2.73 0-1.138-.688-1.879-1.866-1.879-1.358 0-2.337 1.103-2.337 2.747 0 1.139.689 1.862 1.866 1.862zm3.22-7.193H248l-1.953 9.795h-3.256l.2-.921c-.76.705-1.701 1.084-2.84 1.084-2.117 0-4.142-1.608-4.142-4.464 0-3.253 2.387-5.657 5.317-5.657 1.32 0 2.388.398 3.003 1.337zm-14.537 9.795l2.674-13.41h3.434l-2.675 13.41zm-6.23-6.136c1.575 0 2.48-.757 2.48-2.145 0-1.064-.742-1.55-1.992-1.55h-1.883l-.743 3.695zm.959-6.515c3.291 0 5.136 1.5 5.136 4.067 0 3.199-2.442 5.277-6.258 5.277h-2.532l-.65 3.307h-3.582l2.532-12.65zm-13.94 5.01l-.524 2.642h-3.054l-.597 2.985h-2.783l.597-2.985H201.4l.524-2.642h3.055l.596-2.986h2.783l-.596 2.986zm-18.5.77l-.65 3.214c-.019.126-.037.235-.037.325 0 .542.308.83.905.83.362 0 .687-.108 1.031-.288l.434 2.365c-.723.416-1.646.578-2.551.578-2.009 0-3.312-1.047-3.312-2.871 0-.29.018-.596.09-.921l.652-3.233h-1.447l.524-2.564h1.43l.507-2.546h3.438l-.507 2.546h2.226l-.507 2.564zm-10.61 7.034c-3.129 0-5.173-1.771-5.173-4.464 0-3.235 2.533-5.657 6.078-5.657 2.225 0 3.907.976 4.649 2.657l-2.93 1.391c-.38-.921-1.05-1.3-1.9-1.3-1.393 0-2.406 1.102-2.406 2.71 0 1.139.67 1.898 1.918 1.898.886 0 1.592-.362 2.116-1.283l2.515 1.518c-.941 1.59-2.714 2.53-4.866 2.53zm-10.914-7.681c-1.16 0-1.885.687-2.21 1.663h4.04c.018-1.049-.725-1.663-1.83-1.663zm4.992 1.861c0 .579-.09 1.121-.199 1.609h-7.2c.127 1.084.869 1.59 2.226 1.59.868 0 1.718-.27 2.37-.795l1.428 2.151c-1.23.904-2.695 1.265-4.178 1.265-3.148 0-5.21-1.735-5.21-4.464 0-3.253 2.406-5.657 5.933-5.657 2.985 0 4.83 1.735 4.83 4.301zm-15.581-4.301c2.098 0 3.545 1.139 3.545 3.326 0 .38-.036.777-.127 1.21l-1.085 5.422H159.1l1.013-5.096c.055-.235.073-.452.073-.65 0-.85-.434-1.302-1.357-1.302-1.176 0-1.99.705-2.297 2.205l-.977 4.843h-3.436l1.953-9.795h3.256l-.2 1.012c.87-.814 1.99-1.175 3.076-1.175zm-12.578 0c2.098 0 3.545 1.139 3.545 3.326 0 .38-.036.777-.127 1.21l-1.085 5.422h-3.437l1.013-5.096c.054-.235.073-.452.073-.65 0-.85-.435-1.302-1.357-1.302-1.176 0-1.99.705-2.297 2.205l-.977 4.843h-3.437l1.954-9.795h3.256l-.2 1.012c.869-.814 1.99-1.175 3.076-1.175zm-14.46 7.356c1.376 0 2.336-1.103 2.336-2.73 0-1.138-.67-1.879-1.848-1.879-1.376 0-2.336 1.103-2.336 2.747 0 1.139.67 1.862 1.847 1.862zm-.2 2.765c-3.129 0-5.136-1.771-5.136-4.464 0-3.235 2.514-5.657 6.023-5.657 3.13 0 5.137 1.753 5.137 4.446 0 3.253-2.514 5.675-6.023 5.675zm-11.71.08c-3.888 0-6.366-2.257-6.366-5.562 0-4.388 3.237-7.585 7.94-7.585 2.333 0 4.232.849 5.136 2.384l-2.586 2.059c-.597-.957-1.52-1.481-2.785-1.481-2.46 0-4.088 1.896-4.088 4.388 0 1.698 1.158 2.836 3.093 2.836 1.14 0 2.188-.434 3.093-1.463l2.116 2.077c-1.43 1.715-3.292 2.347-5.553 2.347z"/></defs><g><g transform="translate(-91 -24)"><g><g><use fill="#373838" xlink:href="#h4t8a"/></g><g><use fill="#373838" xlink:href="#h4t8b"/></g><g><use fill="#373838" xlink:href="#h4t8c"/></g><g><use fill="#fff" xlink:href="#h4t8d"/></g><g><use fill="#373838" xlink:href="#h4t8e"/></g><g><use fill="#fff" xlink:href="#h4t8f"/></g><g><use fill="#373838" xlink:href="#h4t8g"/></g><g><use fill="#373838" xlink:href="#h4t8h"/></g></g><g><use fill="#fff" xlink:href="#h4t8i"/></g></g></g></svg>