<?xml version="1.0" encoding="UTF-8"?>
<svg width="80px" height="37px" viewBox="0 0 80 37" version="1.1" xmlns="http://www.w3.org/2000/svg" xmlns:xlink="http://www.w3.org/1999/xlink">
    <!-- Generator: Sketch 53.1 (72631) - https://sketchapp.com -->
    <title>Group 9</title>
    <desc>Created with Sketch.</desc>
    <g id="Page-1" stroke="none" stroke-width="1" fill="none" fill-rule="evenodd">
        <g id="Flooks_mob_MENU" transform="translate(-73.000000, -12.000000)">
            <g id="Group-9" transform="translate(73.000000, 12.000000)">
                <path d="M10.2938198,0 C8.78823324,0 7.66236034,0.373323257 6.91812151,1.11996977 C6.16480447,1.89287739 5.78823324,3.02172681 5.78823324,4.50708483 L5.78823324,7.14207444 L4,7.14207444 L4,10.350085 L5.78823324,10.350085 L5.78823324,20 L9.90590084,20 L9.90590084,10.350085 L12,10.350085 L12,7.14207444 L9.90590084,7.14207444 L9.90590084,5.09200831 C9.90590084,4.54033629 9.99598464,4.12922728 10.1761522,3.85698092 C10.3409567,3.60306065 10.6274441,3.47572265 11.0349162,3.47572265 C11.1054469,3.47572265 11.2508729,3.49253731 11.4699721,3.52673342 C11.6817388,3.58549027 11.858764,3.64538069 12,3.70508218 L12,0.241639902 C11.8116271,0.190629133 11.4975559,0.127337994 11.0584846,0.0510107689 C10.6510126,0.0166257321 10.3961243,0 10.2938198,0" id="Fill-2" fill="#FDD92A"></path>
                <polygon id="Fill-4" fill="#FDD92A" points="14 20 18 20 18 0 14 0"></polygon>
                <polygon id="Fill-6" fill="#FDD92A" points="64.4876393 6.96819409 58.962788 6.96819409 54.375286 12.6580242 54.375286 0 50 0 50 20 54.375286 20 54.375286 14.2061927 59.1369758 20 65 20 58.8127156 13.2384199"></polygon>
                <path d="M44.3870565,13.9871499 C44.2494639,14.3123558 44.0617706,14.5927787 43.8234242,14.8286107 C43.5546858,15.0901977 43.2769219,15.2799012 42.9897641,15.397721 C42.6904496,15.5220758 42.3589012,15.5839649 41.9954873,15.5839649 C41.6289421,15.5839649 41.2975779,15.5220758 41.0010262,15.397721 C40.6987646,15.2733663 40.4200797,15.0846238 40.1649716,14.8313015 C39.9100478,14.5775947 39.7258542,14.2965953 39.6129435,13.9871499 C39.4814293,13.6909665 39.4160406,13.3611477 39.4160406,12.9975014 C39.4160406,12.6438495 39.4814293,12.3107633 39.6129435,11.9984349 C39.7348797,11.6830313 39.9199942,11.4026085 40.1673662,11.156782 C40.4086597,10.9147996 40.6864236,10.7283635 41.0010262,10.5976661 C41.3003408,10.476771 41.6320734,10.4160351 41.9954873,10.4160351 C42.3555857,10.4160351 42.6873183,10.476771 42.9897641,10.5976661 C43.3043667,10.7283635 43.5821306,10.9147996 43.8234242,11.156782 C44.0768745,11.3960736 44.2647519,11.6764964 44.3870565,11.9984349 C44.5182023,12.3107633 44.5839594,12.6438495 44.5839594,12.9975014 C44.5839594,13.3515376 44.5182023,13.6813564 44.3870565,13.9871499 M46.9396108,8.00697419 C46.2860921,7.35098847 45.5334772,6.84626579 44.6813978,6.49242175 C43.8617364,6.16433278 42.9634244,6 41.9879353,6 C41.0032365,6 40.1049245,6.16433278 39.2939203,6.49242175 C38.4418409,6.84626579 37.6890418,7.35098847 37.035523,8.00697419 C36.3650585,8.67276222 35.864052,9.43234487 35.5336087,10.2864909 C35.1773784,11.1327567 35,12.0353377 35,12.9932729 C35,13.9781164 35.1773784,14.8716639 35.5336087,15.6741076 C35.8391859,16.5123009 36.3385346,17.2736134 37.0287079,17.9609281 C37.7198021,18.6470895 38.4751799,19.1583471 39.2939203,19.4952773 C40.0971884,19.8320154 40.9945794,20 41.9879353,20 C42.9718973,20 43.8703935,19.8320154 44.6813978,19.4952773 C45.4588788,19.1762219 46.2116779,18.6622735 46.9396108,17.9536244 C47.5852093,17.3147446 48.0939519,16.555162 48.4663913,15.6741076 C48.8218848,14.8457166 49,13.9521691 49,12.9932729 C49,12.0353377 48.8218848,11.1327567 48.4663913,10.2864909 C48.135027,9.41447007 47.6262844,8.65488742 46.9396108,8.00697419" id="Fill-7" fill="#FFFFFF"></path>
                <path d="M43.705661,12.2866794 C43.6123895,12.1930065 43.5047686,12.1208801 43.3831481,12.0703004 C43.2659025,12.0233726 43.1376323,12 42.9983376,12 C42.8576428,12 42.7293726,12.0233726 42.613527,12.0703004 C42.4917316,12.1208801 42.3841106,12.1930065 42.2908391,12.2866794 C42.1951177,12.3818132 42.1235454,12.4902766 42.0762971,12.6122524 C42.025374,12.7331325 42,12.8622295 42,12.9989957 C42,13.1395965 42.025374,13.2672327 42.0762971,13.3819045 C42.1198705,13.501689 42.1912678,13.6105177 42.2897891,13.708573 C42.3886604,13.8066283 42.4964564,13.8796677 42.613527,13.9278736 C42.7281477,13.975897 42.8564179,14 42.9983376,14 C43.1388573,14 43.2671275,13.975897 43.3831481,13.9278736 C43.494094,13.882224 43.6017149,13.8088195 43.705661,13.70766 C43.7978826,13.6163608 43.8705049,13.5078974 43.9237029,13.3819045 C43.974626,13.2635808 44,13.1359445 44,12.9989957 C44,12.8622295 43.974626,12.7331325 43.9237029,12.6122524 C43.8764546,12.4877203 43.8038324,12.3792568 43.705661,12.2866794" id="Fill-8" fill="#FDD92A"></path>
                <path d="M29.3870565,13.9871499 C29.2494639,14.3123558 29.0617706,14.5927787 28.8234242,14.8286107 C28.5546858,15.0901977 28.2767377,15.2799012 27.9897641,15.397721 C27.6904496,15.5220758 27.358717,15.5839649 26.9954873,15.5839649 C26.6289421,15.5839649 26.2975779,15.5220758 26.0010262,15.397721 C25.6987646,15.2733663 25.4200797,15.0846238 25.1649716,14.8313015 C24.9100478,14.5775947 24.7258542,14.2965953 24.6129435,13.9871499 C24.4814293,13.6909665 24.4160406,13.3611477 24.4160406,12.9975014 C24.4160406,12.6438495 24.4814293,12.3107633 24.6129435,11.9984349 C24.7348797,11.6830313 24.91981,11.4026085 25.1673662,11.156782 C25.4086597,10.9147996 25.6864236,10.7283635 26.0010262,10.5976661 C26.3003408,10.476771 26.6320734,10.4160351 26.9954873,10.4160351 C27.3555857,10.4160351 27.6873183,10.476771 27.9897641,10.5976661 C28.3043667,10.7283635 28.5821306,10.9147996 28.8234242,11.156782 C29.0768745,11.3960736 29.2647519,11.6764964 29.3870565,11.9984349 C29.5182023,12.3107633 29.5839594,12.6438495 29.5839594,12.9975014 C29.5839594,13.3515376 29.5182023,13.6813564 29.3870565,13.9871499 M31.9396108,8.00697419 C31.2860921,7.35098847 30.533293,6.84626579 29.6812136,6.49242175 C28.8617364,6.16433278 27.9634244,6 26.9879353,6 C26.0032365,6 25.1049245,6.16433278 24.2939203,6.49242175 C23.4418409,6.84626579 22.6890418,7.35098847 22.0357072,8.00697419 C21.3650585,8.67276222 20.864052,9.43234487 20.5336087,10.2864909 C20.1773784,11.1327567 20,12.0353377 20,12.9932729 C20,13.9781164 20.1773784,14.8716639 20.5336087,15.6741076 C20.8391859,16.5123009 21.3385346,17.2736134 22.0287079,17.9609281 C22.7198021,18.6470895 23.4751799,19.1583471 24.2939203,19.4952773 C25.0971884,19.8320154 25.9945794,20 26.9879353,20 C27.9718973,20 28.8703935,19.8320154 29.6812136,19.4952773 C30.4588788,19.1762219 31.2116779,18.6622735 31.9396108,17.9536244 C32.5852093,17.3147446 33.0939519,16.555162 33.4663913,15.6741076 C33.8218848,14.8457166 34,13.9521691 34,12.9932729 C34,12.0353377 33.8218848,11.1327567 33.4663913,10.2864909 C33.135027,9.41447007 32.6262844,8.65488742 31.9396108,8.00697419" id="Fill-9" fill="#FFFFFF"></path>
                <path d="M28.705661,12.2866794 C28.6123895,12.1930065 28.5047686,12.1208801 28.3829731,12.0703004 C28.2659025,12.0233726 28.1376323,12 27.9983376,12 C27.8576428,12 27.7291977,12.0233726 27.613352,12.0703004 C27.4917316,12.1208801 27.3841106,12.1930065 27.2908391,12.2866794 C27.1949427,12.3818132 27.1233704,12.4902766 27.0762971,12.6122524 C27.025374,12.7331325 27,12.8622295 27,12.9989957 C27,13.1395965 27.025374,13.2672327 27.0762971,13.3819045 C27.1198705,13.501689 27.1912678,13.6105177 27.2897891,13.708573 C27.3886604,13.8066283 27.4964564,13.8796677 27.613352,13.9278736 C27.7281477,13.975897 27.8564179,14 27.9983376,14 C28.1388573,14 28.2671275,13.975897 28.3829731,13.9278736 C28.494094,13.882224 28.6017149,13.8088195 28.705661,13.70766 C28.7978826,13.6163608 28.8705049,13.5078974 28.9237029,13.3819045 C28.974626,13.2635808 29,13.1359445 29,12.9989957 C29,12.8622295 28.974626,12.7331325 28.9237029,12.6122524 C28.8764546,12.4877203 28.8038324,12.3792568 28.705661,12.2866794" id="Fill-10" fill="#FDD92A"></path>
                <path d="M74.2017024,15.0012408 C73.9090321,14.1823717 73.1820651,13.2340266 72.0200771,12.1562055 C72.0126517,12.1523861 71.8655921,12.0120249 71.5785361,11.73474 C70.68169,10.9233187 70.324002,10.3175694 70.5052909,9.91806521 C70.6344208,9.63352349 70.8397972,9.47750296 71.121601,9.44962169 C71.4142713,9.41792107 71.7869913,9.51607842 72.2397609,9.74466663 C72.7944943,10.0246251 73.2804067,10.3880365 73.6969548,10.8343278 C74.1459212,11.2880668 74.5477995,11.8365257 74.9020465,12.4793227 L77,10.0519335 C76.3282709,9.21874186 75.7023622,8.57040686 75.1233603,8.1069285 C74.4337016,7.55006698 73.7496572,7.10014731 73.0706838,6.75755144 C71.6687278,6.05001648 70.4232491,5.83823341 69.3344286,6.12162933 C68.2126465,6.39834138 67.3967556,7.09900151 66.8862125,8.22341873 C66.4912163,9.09404002 66.4394194,9.93907165 66.7315464,10.7587046 C66.9867274,11.5409079 67.6254948,12.4170672 68.6478487,13.3873736 C68.8023337,13.5409116 69.0394039,13.750403 69.3588782,14.015466 C70.2732918,14.7886938 70.6135934,15.4328276 70.3799643,15.9476762 C70.2403301,16.255134 70.0059766,16.4250952 69.6772658,16.4575597 C69.3487361,16.50893 68.9363535,16.4094359 68.4399369,16.1588864 C67.7461126,15.8086518 67.1245505,15.3201567 66.5745259,14.69321 C66.010556,14.0771486 65.5644873,13.3596833 65.2361388,12.5406233 L63,15.2727967 C63.5279294,16.1262309 64.1494916,16.8774975 64.8643243,17.5265963 C65.5791571,18.1758862 66.4256552,18.7476432 67.404181,19.2414854 C68.8132002,19.9524577 70.130941,20.1636679 71.356679,19.8749249 C72.557243,19.5829354 73.4280096,18.8406444 73.9691599,17.6484337 C74.3880624,16.7256782 74.4655766,15.8434079 74.2017024,15.0012408" id="Fill-11" fill="#FDD92A"></path>
                <path d="M3.47873733,34.471379 C1.35394038,34.471379 -1.42108547e-14,33.236032 -1.42108547e-14,31.4274839 C-1.42108547e-14,29.0259692 1.76901699,27.2767177 4.33853888,27.2767177 C5.61341705,27.2767177 6.65110858,27.7412082 7.14524741,28.5812442 L5.73201037,29.7078808 C5.40587874,29.1840936 4.90185714,28.8974931 4.21006279,28.8974931 C2.86600518,28.8974931 1.9765553,29.9351846 1.9765553,31.2990078 C1.9765553,32.2279888 2.60905299,32.8506037 3.66651008,32.8506037 C4.289125,32.8506037 4.86232604,32.613417 5.35646486,32.0500988 L6.51274971,33.1866181 C5.73201037,34.1254819 4.71408439,34.471379 3.47873733,34.471379 Z M9.8827765,34.4219651 C8.17305616,34.4219651 7.07606797,33.4534531 7.07606797,31.9809194 C7.07606797,30.2119024 8.4497739,28.8876103 10.3670325,28.8876103 C12.0767529,28.8876103 13.1737411,29.8462396 13.1737411,31.3187733 C13.1737411,33.0976731 11.8000351,34.4219651 9.8827765,34.4219651 Z M9.99148704,32.9099003 C10.7425781,32.9099003 11.2663652,32.307051 11.2663652,31.4176011 C11.2663652,30.7949862 10.9007025,30.3897923 10.258322,30.3897923 C9.50723099,30.3897923 8.98344383,30.9926417 8.98344383,31.8919744 C8.98344383,32.5145893 9.34910656,32.9099003 9.99148704,32.9099003 Z M17.8977082,28.8876103 C19.0441103,28.8876103 19.8347324,29.5102252 19.8347324,30.7060412 C19.8347324,30.9135795 19.8149669,31.1310006 19.765553,31.3681872 L19.1725864,34.3330202 L17.2948589,34.3330202 L17.8482944,31.5460772 C17.8779427,31.4176011 17.8878255,31.2990078 17.8878255,31.1902972 C17.8878255,30.7258067 17.6506388,30.4787373 17.1466172,30.4787373 C16.5042367,30.4787373 16.0595118,30.8641656 15.8915046,31.6844361 L15.3578347,34.3330202 L13.4801071,34.3330202 L14.547447,28.9765553 L16.3263468,28.9765553 L16.2176362,29.5299908 C16.6920095,29.0852658 17.3047416,28.8876103 17.8977082,28.8876103 Z M24.7761207,28.8876103 C25.9225227,28.8876103 26.7131449,29.5102252 26.7131449,30.7060412 C26.7131449,30.9135795 26.6933793,31.1310006 26.6439654,31.3681872 L26.0509988,34.3330202 L24.1732713,34.3330202 L24.7267068,31.5460772 C24.7563551,31.4176011 24.7662379,31.2990078 24.7662379,31.1902972 C24.7662379,30.7258067 24.5290513,30.4787373 24.0250297,30.4787373 C23.3826492,30.4787373 22.9379242,30.8641656 22.769917,31.6844361 L22.2362471,34.3330202 L20.3585196,34.3330202 L21.4258594,28.9765553 L23.2047592,28.9765553 L23.0960487,29.5299908 C23.5704219,29.0852658 24.1831541,28.8876103 24.7761207,28.8876103 Z M33.295074,31.2397111 C33.295074,31.55596 33.2456601,31.8524433 33.1863635,32.1192782 L29.2530184,32.1192782 C29.3221979,32.7122448 29.7273917,32.9889626 30.4685999,32.9889626 C30.9429732,32.9889626 31.4074637,32.8407209 31.7632437,32.5541204 L32.543983,33.7301708 C31.8719542,34.2243096 31.0714493,34.4219651 30.2610616,34.4219651 C28.5414585,34.4219651 27.414822,33.4732186 27.414822,31.9809194 C27.414822,30.2020196 28.7292313,28.8876103 30.6563727,28.8876103 C32.2870308,28.8876103 33.295074,29.8363569 33.295074,31.2397111 Z M30.5674277,30.2217851 C29.93493,30.2217851 29.5396189,30.5973306 29.361729,31.1310006 L31.5655881,31.1310006 C31.5754709,30.5577995 31.1702771,30.2217851 30.5674277,30.2217851 Z M36.5366247,34.4219651 C34.8269044,34.4219651 33.7101506,33.4534531 33.7101506,31.9809194 C33.7101506,30.2119024 35.0937393,28.8876103 37.0307635,28.8876103 C38.246345,28.8876103 39.1654433,29.4212802 39.5706371,30.3403785 L37.9696273,31.1013522 C37.762089,30.5973306 37.3964263,30.3897923 36.9319358,30.3897923 C36.170962,30.3897923 35.6175265,30.9926417 35.6175265,31.8722088 C35.6175265,32.4948237 35.9831892,32.9099003 36.6651008,32.9099003 C37.1493568,32.9099003 37.5347851,32.7122448 37.8213856,32.2082232 L39.1950916,33.0383764 C38.6811872,33.9080608 37.7126751,34.4219651 36.5366247,34.4219651 Z M42.3378145,30.5775651 L41.9820346,32.3366993 C41.9721518,32.4058787 41.962269,32.4651754 41.962269,32.5145893 C41.962269,32.8110726 42.1302762,32.969197 42.4564078,32.969197 C42.6540634,32.969197 42.8319533,32.9099003 43.0197261,32.8110726 L43.2569127,34.1057163 C42.8616017,34.3330202 42.3575801,34.4219651 41.8634412,34.4219651 C40.766453,34.4219651 40.0548931,33.8487641 40.0548931,32.8506037 C40.0548931,32.6924793 40.0647759,32.5244721 40.104307,32.3465821 L40.460087,30.5775651 L39.6694649,30.5775651 L39.9560654,29.1742108 L40.7368047,29.1742108 L41.0135225,27.7807393 L42.89125,27.7807393 L42.6145322,29.1742108 L43.8301138,29.1742108 L43.553396,30.5775651 L42.3378145,30.5775651 Z M52.4577776,30.1526057 L52.1711771,31.5954911 L50.5009879,31.5954911 L50.1748563,33.2261492 L48.6529087,33.2261492 L48.9790403,31.5954911 L47.3088511,31.5954911 L47.5954516,30.1526057 L49.2656408,30.1526057 L49.5917725,28.5219476 L51.11372,28.5219476 L50.7875884,30.1526057 L52.4577776,30.1526057 Z M60.0773983,27.4150766 C61.8760636,27.4150766 62.8841068,28.2353471 62.8841068,29.6387013 C62.8841068,31.3879528 61.549932,32.5244721 59.4646662,32.5244721 L58.0810775,32.5244721 L57.7252975,34.3330202 L55.7685078,34.3330202 L57.1520965,27.4150766 L60.0773983,27.4150766 Z M59.5536112,30.9827589 C60.4134127,30.9827589 60.9075515,30.5676823 60.9075515,29.8067085 C60.9075515,29.2236247 60.5023577,28.9567897 59.8204461,28.9567897 L58.7926374,28.9567897 L58.3874435,30.9827589 L59.5536112,30.9827589 Z M62.9631691,34.3330202 L64.42582,27 L66.3035475,27 L64.8408966,34.3330202 L62.9631691,34.3330202 Z M70.9089214,28.9765553 L72.7866489,28.9765553 L71.719309,34.3330202 L69.9404093,34.3330202 L70.0491198,33.8289986 C69.6340432,34.2144268 69.1201388,34.4219651 68.4975239,34.4219651 C67.341239,34.4219651 66.2343681,33.542398 66.2343681,31.9809194 C66.2343681,30.2020196 67.5388946,28.8876103 69.1399044,28.8876103 C69.861347,28.8876103 70.4444309,29.1050314 70.7804453,29.6189358 L70.9089214,28.9765553 Z M69.1497871,32.9099003 C69.9008782,32.9099003 70.4246653,32.307051 70.4246653,31.4176011 C70.4246653,30.7949862 70.0491198,30.3897923 69.4067393,30.3897923 C68.6655311,30.3897923 68.1318612,30.9926417 68.1318612,31.8919744 C68.1318612,32.5145893 68.5074067,32.9099003 69.1497871,32.9099003 Z M77.7972166,28.9765553 L79.635413,28.9765553 L76.2060896,34.5702068 C75.3660536,35.93403 74.6742592,36.3392238 73.5476227,36.3392238 C72.9843044,36.3392238 72.3616895,36.151451 72.0355579,35.8747333 L72.8755939,34.5504412 C73.093015,34.738214 73.3796155,34.8568073 73.7057471,34.8568073 C74.0516443,34.8568073 74.2690654,34.7085657 74.4963692,34.3725513 L73.2807877,28.9765553 L75.1486325,28.9765553 L75.8206613,32.2675199 L77.7972166,28.9765553 Z" id="Connect-+-Play" fill="#FFFFFF"></path>
            </g>
        </g>
    </g>
</svg>