<svg xmlns="http://www.w3.org/2000/svg" width="20" height="15" viewBox="0 0 20 15">
    <path fill="#888" fill-rule="evenodd" d="M18.125 0c.52 0 .963.182 1.328.547.365.364.547.807.547 1.328v11.25c0 .52-.182.964-.547 1.328a1.808 1.808 0 0 1-1.328.547H1.875c-.52 0-.964-.182-1.328-.547A1.808 1.808 0 0 1 0 13.125V1.875C0 1.355.182.911.547.547A1.808 1.808 0 0 1 1.875 0h16.25zm.625 13.125V1.875a.608.608 0 0 0-.176-.45.608.608 0 0 0-.449-.175H1.875a.608.608 0 0 0-.45.176.608.608 0 0 0-.175.449v11.25c0 .182.059.332.176.45a.608.608 0 0 0 .449.175h16.25a.608.608 0 0 0 .45-.176.608.608 0 0 0 .175-.449zM4.375 6.563a2.105 2.105 0 0 1-1.543-.645 2.105 2.105 0 0 1-.645-1.543c0-.599.215-1.113.645-1.543.43-.43.944-.644 1.543-.644s1.113.214 1.543.644c.43.43.644.944.644 1.543s-.214 1.113-.644 1.543c-.43.43-.944.645-1.543.645zm0-3.125a.904.904 0 0 0-.664.273.904.904 0 0 0-.274.664c0 .26.092.482.274.664a.904.904 0 0 0 .664.274c.26 0 .482-.092.664-.274a.904.904 0 0 0 .273-.664.904.904 0 0 0-.273-.664.904.904 0 0 0-.664-.273zm8.086.898a.904.904 0 0 1 .664-.273c.26 0 .482.09.664.273l3.438 3.437a.904.904 0 0 1 .273.665v3.593c0 .13-.046.241-.137.332a.452.452 0 0 1-.332.137H2.97a.452.452 0 0 1-.332-.137.452.452 0 0 1-.137-.332v-1.093c0-.26.091-.482.273-.665l3.438-3.437a.904.904 0 0 1 .664-.273c.26 0 .482.09.664.273l1.211 1.21 3.71-3.71zm3.789 6.914V8.555L13.125 5.43 8.75 9.805 6.875 7.93 3.75 11.055v.195h12.5z"/>
</svg>
