<svg xmlns="http://www.w3.org/2000/svg" width="20" height="21" viewBox="0 0 20 21">
    <path fill="#8F9190" fill-rule="evenodd" d="M5.82 20.5c-.65 0-1.289-.124-1.914-.371a4.535 4.535 0 0 1-1.64-1.113A4.88 4.88 0 0 1 .957 16.75a5.164 5.164 0 0 1 0-2.598 4.636 4.636 0 0 1 1.309-2.246L12.5 1.633C13.255.878 14.18.5 15.273.5c1.094 0 2.025.384 2.793 1.152.769.769 1.153 1.7 1.153 2.793 0 1.094-.378 2.019-1.133 2.774l-8.711 8.71c-.547.548-1.217.821-2.012.821-.794 0-1.465-.273-2.011-.82-.547-.547-.82-1.218-.82-2.012s.273-1.465.82-2.012l6.68-6.64a.371.371 0 0 1 .312-.157c.13 0 .234.052.312.157l.235.195a.486.486 0 0 1 .156.352c0 .13-.052.234-.156.312l-6.641 6.68a1.52 1.52 0 0 0-.469 1.113c0 .43.156.8.469 1.113a1.52 1.52 0 0 0 1.113.469c.43 0 .801-.156 1.114-.469l8.71-8.672c.521-.546.782-1.191.782-1.933a2.58 2.58 0 0 0-.782-1.895 2.58 2.58 0 0 0-1.894-.781c-.742 0-1.387.26-1.934.781L3.125 12.766c-.73.755-1.094 1.653-1.094 2.695 0 1.042.371 1.934 1.114 2.676.742.742 1.634 1.113 2.675 1.113 1.042 0 1.94-.365 2.696-1.094l8.515-8.515a.371.371 0 0 1 .313-.157c.13 0 .247.052.351.157l.196.234a.371.371 0 0 1 .156.313c0 .13-.052.234-.156.312l-8.516 8.516a4.535 4.535 0 0 1-1.64 1.113 5.159 5.159 0 0 1-1.915.371z"/>
</svg>
