<svg xmlns="http://www.w3.org/2000/svg" width="16" height="16" viewBox="0 0 16 16">
    <path fill="#8F9190" fill-rule="evenodd" d="M7.75.25c1.396 0 2.687.349 3.875 1.047a7.831 7.831 0 0 1 2.828 2.828A7.513 7.513 0 0 1 15.5 8a7.513 7.513 0 0 1-1.047 3.875 7.831 7.831 0 0 1-2.828 2.828A7.513 7.513 0 0 1 7.75 15.75a7.513 7.513 0 0 1-3.875-1.047 7.831 7.831 0 0 1-2.828-2.828A7.513 7.513 0 0 1 0 8c0-1.396.349-2.687 1.047-3.875a7.831 7.831 0 0 1 2.828-2.828A7.513 7.513 0 0 1 7.75.25zm0 14a6.065 6.065 0 0 0 3.125-.844 6.303 6.303 0 0 0 2.281-2.281c.563-.958.844-2 .844-3.125a6.065 6.065 0 0 0-.844-3.125 6.303 6.303 0 0 0-2.281-2.281c-.958-.563-2-.844-3.125-.844a6.065 6.065 0 0 0-3.125.844 6.303 6.303 0 0 0-2.281 2.281C1.78 5.833 1.5 6.875 1.5 8s.281 2.167.844 3.125a6.303 6.303 0 0 0 2.281 2.281c.958.563 2 .844 3.125.844zM5.25 7.5a.961.961 0 0 1-.703-.297.961.961 0 0 1-.297-.703c0-.27.099-.505.297-.703A.961.961 0 0 1 5.25 5.5c.27 0 .505.099.703.297a.961.961 0 0 1 .297.703c0 .27-.099.505-.297.703a.961.961 0 0 1-.703.297zm5 0a.961.961 0 0 1-.703-.297.961.961 0 0 1-.297-.703c0-.27.099-.505.297-.703a.961.961 0 0 1 .703-.297c.27 0 .505.099.703.297a.961.961 0 0 1 .297.703c0 .27-.099.505-.297.703a.961.961 0 0 1-.703.297zm.125 2.281a.685.685 0 0 1 .5-.281c.208-.02.39.036.547.172a.758.758 0 0 1 .265.516.678.678 0 0 1-.156.53c-.479.563-1.047 1-1.703 1.313a4.775 4.775 0 0 1-2.078.469c-.73 0-1.422-.156-2.078-.469a5.092 5.092 0 0 1-1.703-1.312.678.678 0 0 1-.157-.531c.021-.209.11-.38.266-.516a.696.696 0 0 1 .547-.172c.208.02.375.115.5.281.333.375.73.672 1.187.89a3.298 3.298 0 0 0 2.875 0 3.71 3.71 0 0 0 1.188-.89z"/>
</svg>
