<?xml version="1.0" encoding="UTF-8"?>
<svg width="20px" height="23px" viewBox="0 0 20 23" version="1.1" xmlns="http://www.w3.org/2000/svg" xmlns:xlink="http://www.w3.org/1999/xlink">
    <!-- Generator: Sketch 52.6 (67491) - http://www.bohemiancoding.com/sketch -->
    <title>user</title>
    <desc>Created with Sketch.</desc>
    <g id="Page-1" stroke="none" stroke-width="1" fill="none" fill-rule="evenodd">
        <g id="Avatar" transform="translate(-14.000000, -13.000000)" fill="#202323">
            <path d="M23.999975,24.4285429 C22.9583112,24.4285429 21.9984921,24.1755671 21.1205179,23.6696162 C20.2425437,23.1636653 19.5505811,22.4717027 19.0446302,21.5937285 C18.5386794,20.7157543 18.2857036,19.7559353 18.2857036,18.7142714 C18.2857036,17.6726076 18.5386794,16.7127886 19.0446302,15.8348143 C19.5505811,14.9568401 20.2425437,14.2648776 21.1205179,13.7589267 C21.9984921,13.2529758 22.9583112,13 23.999975,13 C25.0416388,13 26.0014579,13.2529758 26.8794321,13.7589267 C27.7574063,14.2648776 28.4493689,14.9568401 28.9553198,15.8348143 C29.4612706,16.7127886 29.7142464,17.6726076 29.7142464,18.7142714 C29.7142464,19.7559353 29.4612706,20.7157543 28.9553198,21.5937285 C28.4493689,22.4717027 27.7574063,23.1636653 26.8794321,23.6696162 C26.0014579,24.1755671 25.0416388,24.4285429 23.999975,24.4285429 Z M28.0178221,25.8571107 C29.089248,25.8571107 30.0862691,26.1249672 31.008886,26.6606801 C31.931503,27.1963931 32.6606676,27.9255577 33.1963806,28.8481747 C33.7320935,29.7707916 33.99995,30.7678127 33.99995,31.8392386 L33.99995,33.7142339 C33.99995,34.3094703 33.791617,34.8154219 33.3749516,35.2320873 C32.9582862,35.6487527 32.4523346,35.8570857 31.8570982,35.8570857 L16.1428518,35.8570857 C15.5476154,35.8570857 15.0416638,35.6487527 14.6249984,35.2320873 C14.208333,34.8154219 14,34.3094703 14,33.7142339 L14,31.8392386 C14,30.7678127 14.2678565,29.7707916 14.8035694,28.8481747 C15.3392824,27.9255577 16.068447,27.1963931 16.991064,26.6606801 C17.9136809,26.1249672 18.910702,25.8571107 19.9821279,25.8571107 L20.7410546,25.8571107 C21.7827184,26.3333002 22.8690257,26.5713946 23.999975,26.5713946 C25.1309243,26.5713946 26.2172316,26.3333002 27.2588954,25.8571107 L28.0178221,25.8571107 Z" id="user"></path>
        </g>
    </g>
</svg>