<svg height="15" viewBox="0 0 22 15" width="22" xmlns="http://www.w3.org/2000/svg"><g fill="none" fill-rule="evenodd"><path d="m6.504 6.3037h8.708v-4.988h-8.708z" fill="#fff"/><g fill="#231f20"><path d="m21.031 11.0597-1.668-8.123c-.275-1.174-.515-2.852-2.725-2.852h-.331c-1.235 0-1.615 1.231-1.615 1.231h-.008l-.689 3.519c-.107.55-.589.947-1.15.947h-4.4c-.561 0-1.043-.397-1.151-.947l-.688-3.519h-.009s-.379-1.231-1.615-1.231h-.33c-2.21 0-2.451 1.678-2.726 2.852l-1.667 8.123c-.281 1.072-.092 2.803 1.823 3.477 1.921.676 3.477-.586 4.149-1.848l1.372-2.644c.426-.902 1.216-1.608 2.206-1.608h1.671c.991 0 1.78.706 2.207 1.608l1.371 2.644c.673 1.262 2.229 2.524 4.149 1.848 1.916-.674 2.105-2.405 1.824-3.477"/><path d="m9.0756 4.3811h3.139c.233 0 .434-.164.482-.392l.556-2.673h-5.216l.557 2.673c.047.228.249.392.482.392"/></g></g></svg>