<svg height="20" viewBox="0 0 19 20" width="19" xmlns="http://www.w3.org/2000/svg"><g fill="none" fill-rule="evenodd"><path d="m7.2981 2.9293s2.236-2.05 6.756-2.212c3.417 2.338 3.584 2.401 3.667 2.942.083.542-1.354 5.985-1.354 5.985l-8.304 8.702-3.485.566-3.905-3.553s.171-3.234.614-4.359c.444-1.124 6.011-8.071 6.011-8.071" fill="#fff"/><g fill="#231f20"><path d="m.673 14.4463c-.012.694-.004 2.177.154 2.798.128.505.373.942.697 1.276.085.068.173.13.261.191.373.228.81.38 1.295.413.505.035 2.016-.252 2.334-.312.2-1.225-1.165-4.445-4.741-4.366"/><path d="m18.8135 4.2941c.032-1.212-.079-2.353-.462-2.792-.732-.839-4.286-.935-5.908-.617-.112.022-.109.173-.001.209 1.619.54 3.14 1.714 4.132 3.071.361.493.636 1.472.389 1.893-.698.788-1.556-.479-1.556-.479l.031.055c-.3-.375-.617-.743-.964-1.09-2.293-2.294-4.91-2.711-6.812-1.839-.277.164-.553.341-.828.532-.007.007-.017.013-.024.02l-.002-.002c-.66.46-1.314.991-1.948 1.625-2.458 2.458-3.51 5.187-3.874 7.562 1.905.144 5.916 1.503 6.399 6.042 2.301-.406 4.902-1.472 7.254-3.824.295-.295.568-.593.823-.895v.001s2.141-2.029 3.007-6.466c0-.001.002-.001.002-.002.167-.74.31-1.882.341-2.971 0-.011.002-.02.002-.031 0-.001-.001-.001-.001-.002"/></g></g></svg>