<svg height="19" viewBox="0 0 19 19" width="19" xmlns="http://www.w3.org/2000/svg"><g fill="none" fill-rule="evenodd"><path d="m18.6451 9.6448c0 5.001-4.054 9.054-9.054 9.054-5.001 0-9.055-4.053-9.055-9.054s4.054-9.054 9.055-9.054c5 0 9.054 4.053 9.054 9.054" fill="#fff"/><path d="m15.7463 14.8768c-2.805-.822-5.322-3.307-6.284-4.349-.266-.288-.667-.4-1.046-.298l-1.331.356.329.493c2.473 3.487 6.502 5.181 6.703 5.264-.417.282-.862.524-1.329.726-4.589-1.687-6.978-5.881-7.118-6.1-1.153.235-2.153.794-2.153.794 2.433 4.16 6.456 5.909 6.456 5.909s.168.014.417.016c-.263.026-.53.04-.8.04-.767 0-1.507-.114-2.21-.313-3.213-1.863-4.726-5.21-4.784-5.305-.252.056-.458.164-.608.261-.128-.358-.24-.724-.318-1.103 1.946-1.278 4.554-1.894 6.131-2.163.832-.142 1.515-.75 1.768-1.555.109-.346.139-.556.139-.556h-.427c-3.308.02-6.418 1.432-7.747 2.126.036-.563.128-1.11.274-1.635 3.856-2.159 8.376-1.934 8.376-1.934s.21-.443.344-.984c.133-.542.121-1.004.121-1.004-3.257-.304-6.094.666-7.578 1.317.517-.706 1.142-1.325 1.857-1.831 3.172-.967 5.827-.686 5.827-.686s.065-.378.067-.698c.435.067.86.163 1.269.296.056 2.795-1.176 5.69-1.687 6.754-.127.264-.084.573.116.788.239.258.598.633 1.04 1.058l.198-.304c1.789-2.851 2.169-6.044 2.25-7.377.439.288.849.616 1.223.981-.125 3.861-2.097 6.891-2.626 7.636.486.404 1.03.813 1.616 1.186 1.655-2.36 2.333-5.463 2.554-6.732.388.754.658 1.578.793 2.447-.387 2.355-1.612 4.339-2.13 4.967.35.169.711.312 1.076.435-.228.38-.482.741-.768 1.077m-6.156-14.579c-5.162 0-9.347 4.185-9.347 9.347s4.185 9.347 9.347 9.347c5.163 0 9.348-4.185 9.348-9.347s-4.185-9.347-9.348-9.347" fill="#231f20"/></g></svg>