<?xml version="1.0" encoding="UTF-8"?>
<svg width="27px" height="28px" viewBox="0 0 27 28" version="1.1" xmlns="http://www.w3.org/2000/svg" xmlns:xlink="http://www.w3.org/1999/xlink">
    <!-- Generator: Sketch 53.1 (72631) - https://sketchapp.com -->
    <title>Icon</title>
    <desc>Created with Sketch.</desc>
    <g id="Page-1" stroke="none" stroke-width="1" fill="none" fill-rule="evenodd">
        <g id="Live-Game" transform="translate(-1208.000000, -189.000000)">
            <g id="Betslip" transform="translate(1171.000000, 153.000000)">
                <g id="Icon" transform="translate(20.000000, 20.000000)">
                    <g id="Active">
                        <g id="Icon" transform="translate(16.500000, 16.000000)">
                            <polygon id="Fill-4" fill="#FFFFFF" points="11.7748421 13.87078 19.3547368 13.87078 19.3547368 1.81678 11.7748421 1.81678"></polygon>
                            <path d="M15.7284947,22.34344 C15.3590211,21.73864 14.5674947,21.46564 13.7646,21.46704 L13.7646,21.45864 C13.7418632,21.45864 13.7219684,21.46284 13.6992316,21.46284 C13.6779158,21.46284 13.6566,21.45864 13.6352842,21.45864 L13.6352842,21.46704 C12.8309684,21.46564 12.0408632,21.73864 11.6713895,22.34344 C11.6685474,22.34904 11.4767053,24.70944 9.2016,25.62224 C6.37654737,26.16544 4.62296842,27.03204 4.62296842,27.03204 L4.62296842,27.70264 L22.7754947,27.70264 L22.7754947,27.03204 C22.7754947,27.03204 21.0247579,26.18224 18.2295474,25.63904 C15.9203368,24.73604 15.7313368,22.34904 15.7284947,22.34344" id="Fill-6" fill="#231F20"></path>
                            <path d="M23.9420368,11.12874 C23.1419842,11.18614 22.4414053,11.31354 21.8076158,11.48294 L22.7625632,5.58054 C23.5540895,5.92634 24.2759842,6.30574 24.7861421,6.70054 L23.9420368,11.12874 Z M18.2294053,11.50114 C16.9731947,12.13254 15.8775632,13.48494 15.1798263,14.49574 L15.1798263,3.08994 C17.6993526,3.04094 19.3548789,3.49454 19.3548789,3.49454 C19.3548789,3.49454 18.4979842,9.58594 18.2294053,11.50114 L18.2294053,11.50114 Z M3.47035263,11.12874 L2.55661579,6.72574 C3.0753,6.32394 3.81993158,5.93614 4.63703684,5.58194 L5.59198421,11.47874 C4.96103684,11.31214 4.2633,11.18614 3.47035263,11.12874 L3.47035263,11.12874 Z M26.6121947,6.11114 C25.8561947,5.41954 24.4692474,4.76294 22.9828263,4.21414 L23.1789316,3.00174 C23.1789316,1.73194 18.1498263,0.70294 13.6990895,0.70294 C9.24977368,0.70294 4.22066842,1.73194 4.22066842,3.00174 L4.41677368,4.21834 C2.93603684,4.76574 1.55335263,5.42094 0.800194737,6.11114 L0.598405263,6.29594 L1.86456316,12.32574 L2.47845789,12.34394 C5.00651053,12.34394 6.61798421,13.35194 7.71361579,14.45514 L10.7504053,19.07094 C11.0786684,19.57214 11.7280895,19.80174 12.2823,19.56094 C13.1406158,19.18714 14.2120895,19.15774 15.0874579,19.54554 C15.6388263,19.78914 16.2910895,19.53574 16.6122474,19.03034 L18.9854053,15.29374 C20.2316684,13.89094 22.1301947,12.34394 24.9325105,12.34394 L25.5478263,12.32574 L26.8139842,6.29594 L26.6121947,6.11114 Z" id="Fill-7" fill="#231F20"></path>
                        </g>
                    </g>
                </g>
            </g>
        </g>
    </g>
</svg>