<?xml version="1.0" encoding="UTF-8"?>
<svg width="198px" height="198px" viewBox="0 0 198 198" version="1.1" xmlns="http://www.w3.org/2000/svg" xmlns:xlink="http://www.w3.org/1999/xlink">
    <!-- Generator: Sketch 53.1 (72631) - https://sketchapp.com -->
    <title>football</title>
    <desc>Created with Sketch.</desc>
    <defs>
        <polygon id="path-1" points="0.00317460317 0.0529100529 197.820106 0.0529100529 197.820106 197.883598 0.00317460317 197.883598"></polygon>
    </defs>
    <g id="Page-1" stroke="none" stroke-width="1" fill="none" fill-rule="evenodd" opacity="0.0799999982">
        <g id="Live-Game" transform="translate(-1199.000000, -166.000000)">
            <g id="Betslip" transform="translate(1171.000000, 153.000000)">
                <g id="Background">
                    <g id="football" transform="translate(28.000000, 13.000000)">
                        <g id="Group-3">
                            <mask id="mask-2" fill="white">
                                <use xlink:href="#path-1"></use>
                            </mask>
                            <g id="Clip-2"></g>
                            <path d="M175.114286,137.693122 C173.643386,137.195767 172.098413,136.920635 170.489947,137.174603 L142.172487,141.661376 C137.907937,142.338624 134.564021,145.68254 133.886772,149.94709 L129.4,178.26455 C129.368254,178.455026 129.4,178.634921 129.4,178.814815 C119.918519,182.433862 109.66455,184.507937 98.9132275,184.507937 C87.1777778,184.507937 76.0137566,182.137566 65.8338624,177.862434 L61.410582,149.94709 C60.7333333,145.68254 57.389418,142.338624 53.1248677,141.661376 L24.8074074,137.174603 C24.0137566,137.047619 23.2306878,137.100529 22.4687831,137.174603 C16.7015873,125.671958 13.378836,112.719577 13.378836,98.973545 C13.378836,98.0846561 13.4846561,97.2169312 13.5058201,96.3386243 C13.6645503,96.2962963 13.8232804,96.2645503 13.9714286,96.1904762 L39.6857143,83.5026455 C43.5587302,81.5873016 45.7597884,77.4074074 45.1354497,73.1322751 L41.0190476,44.7513228 C40.6804233,42.4867725 39.4634921,40.6031746 37.8656085,39.1111111 C46.1513228,30.6560847 56.1830688,23.957672 67.378836,19.5132275 C68.0243386,20.5925926 68.7862434,21.6084656 69.8550265,22.3809524 L93.0613757,39.2380952 C96.5534392,41.7777778 101.273016,41.7777778 104.765079,39.2380952 L127.971429,22.3809524 C129.02963,21.6084656 129.791534,20.5925926 130.447619,19.5132275 C141.61164,23.9470899 151.632804,30.6243386 159.907937,39.047619 C158.278307,40.5502646 157.040212,42.4550265 156.701587,44.7513228 L152.585185,73.1322751 C151.960847,77.4074074 154.161905,81.5873016 158.034921,83.5026455 L183.749206,96.1904762 C183.929101,96.2857143 184.130159,96.3174603 184.320635,96.3703704 C184.341799,97.2380952 184.447619,98.0952381 184.447619,98.973545 C184.447619,112.920635 181.040212,126.05291 175.114286,137.693122 M98.9132275,0.0529100529 C44.2888889,0.0529100529 0.00317460317,44.3386243 0.00317460317,98.973545 C0.00317460317,153.597884 44.2888889,197.883598 98.9132275,197.883598 C153.537566,197.883598 197.82328,153.597884 197.82328,98.973545 C197.82328,44.3386243 153.537566,0.0529100529 98.9132275,0.0529100529" id="Fill-1" fill="#FFFFFF" mask="url(#mask-2)"></path>
                        </g>
                        <path d="M104.695238,68.221164 C102.684656,67.173545 100.885714,66.6021164 98.9809524,66.6021164 C97.0867725,66.6021164 95.1608466,67.184127 93.1291005,68.221164 C93.1291005,68.221164 77.1185185,76.7714286 69.9333333,85.0783069 C67.3936508,87.9989418 66.1343915,92.6656085 66.3142857,96.210582 C66.8222222,106.485714 71.9756614,119.014815 75.1714286,123.491005 C77.9121693,127.321693 81.3301587,129.93545 84.6529101,130.369312 C90.0179894,131.078307 94.7481481,131.311111 98.8433862,131.342857 L98.8433862,131.342857 C98.8645503,131.342857 98.8857143,131.342857 98.9174603,131.342857 C98.9386243,131.342857 98.9597884,131.342857 98.9809524,131.342857 L98.9809524,131.342857 C103.07619,131.311111 107.806349,131.078307 113.182011,130.369312 C116.49418,129.93545 119.912169,127.321693 122.65291,123.491005 C125.859259,119.014815 131.002116,106.485714 131.510053,96.210582 C131.689947,92.6656085 130.430688,87.9989418 127.891005,85.0783069 C120.70582,76.7714286 104.695238,68.221164 104.695238,68.221164" id="Fill-4" fill="#FFFFFF"></path>
                    </g>
                </g>
            </g>
        </g>
    </g>
</svg>