<svg width="18" height="16" viewBox="0 0 18 16" fill="none" xmlns="http://www.w3.org/2000/svg">
<path fill-rule="evenodd" clip-rule="evenodd" d="M2.29097 14.7678H16.3137C17.5478 14.7678 18.2994 13.4097 17.6436 12.3642L10.6324 1.17633C10.0166 0.194755 8.58672 0.194755 7.97205 1.17662L0.960873 12.3644C0.305265 13.4097 1.05685 14.7678 2.29097 14.7678ZM16.4236 13.1291C16.4779 13.2157 16.4159 13.3278 16.3137 13.3278H2.29097C2.18879 13.3278 2.12675 13.2157 2.18092 13.1293L9.19243 1.941C9.24323 1.85986 9.36133 1.85986 9.41242 1.94131L16.4236 13.1291Z" fill="#EF4E3F"/>
<path fill-rule="evenodd" clip-rule="evenodd" d="M8.78308 9.37699L7.58716 5.98291H10.8192L9.73348 9.42955C9.565 9.84139 8.89252 9.80395 8.78308 9.37699Z" fill="#EF4E3F"/>
<path d="M8.58228 10.4604H10.0223V11.6794H8.58228V10.4604Z" fill="#EF4E3F"/>
</svg>