<?xml version="1.0" encoding="UTF-8"?>
<svg width="14px" height="11px" viewBox="0 0 14 11" version="1.1" xmlns="http://www.w3.org/2000/svg" xmlns:xlink="http://www.w3.org/1999/xlink">
    <!-- Generator: Sketch 53.1 (72631) - https://sketchapp.com -->
    <title>Twitter</title>
    <desc>Created with Sketch.</desc>
    <g id="Page-1" stroke="none" stroke-width="1" fill="none" fill-rule="evenodd">
        <g id="News" transform="translate(-415.000000, -184.000000)" fill="#FFFFFF">
            <path d="M429,185.302022 C428.485234,185.522823 427.930933,185.672119 427.350277,185.739696 C427.943287,185.395528 428.398753,184.851775 428.612896,184.203515 C428.057772,184.521752 427.443346,184.752768 426.788563,184.87692 C426.264737,184.337096 425.518532,184 424.692434,184 C423.10613,184 421.819626,185.243089 421.819626,186.776913 C421.819626,186.995357 421.845982,187.206729 421.894576,187.410244 C419.507707,187.294735 417.391811,186.188371 415.975174,184.508393 C415.727262,184.918566 415.586422,185.395528 415.586422,185.904707 C415.586422,186.868062 416.093776,187.718266 416.863866,188.215658 C416.392752,188.201514 415.949641,188.076577 415.56336,187.868348 L415.56336,187.903707 C415.56336,189.248946 416.552536,190.371027 417.867043,190.626402 C417.625721,190.690049 417.372867,190.723837 417.110131,190.723837 C416.925638,190.723837 416.745264,190.70655 416.569832,190.673548 C416.935522,191.77677 417.996353,192.579827 419.253206,192.602614 C418.269796,193.346739 417.031062,193.790699 415.685257,193.790699 C415.453818,193.790699 415.22485,193.778127 415,193.752197 C416.270855,194.540324 417.780562,195 419.403106,195 C424.685845,195 427.575126,190.768626 427.575126,187.099079 C427.575126,186.97807 427.571832,186.859419 427.56689,186.739981 C428.12778,186.348668 428.615367,185.859133 429,185.302807 L429,185.302022 L429,185.302022 Z" id="Twitter"></path>
        </g>
    </g>
</svg>