<?xml version="1.0" encoding="UTF-8"?>
<svg width="12px" height="13px" viewBox="0 0 12 13" version="1.1" xmlns="http://www.w3.org/2000/svg" xmlns:xlink="http://www.w3.org/1999/xlink">
    <!-- Generator: Sketch 53.1 (72631) - https://sketchapp.com -->
    <title>Group 3</title>
    <desc>Created with Sketch.</desc>
    <defs>
        <polygon id="path-1" points="0 0 12 0 12 13 0 13"></polygon>
    </defs>
    <g id="Page-1" stroke="none" stroke-width="1" fill="none" fill-rule="evenodd">
        <g id="Edit-Profile" transform="translate(-94.000000, -234.000000)">
            <g id="Group" transform="translate(91.000000, 184.000000)">
                <g id="Group-3" transform="translate(3.000000, 50.000000)">
                    <mask id="mask-2" fill="white">
                        <use xlink:href="#path-1"></use>
                    </mask>
                    <g id="Clip-2"></g>
                    <path d="M8.9647559,6.66381337 C9.59847835,6.66381337 10.1118114,7.2120867 10.1118114,7.88787656 C10.1118114,8.56414401 9.59847835,9.11193975 8.9647559,9.11193975 C8.33103345,9.11193975 7.81770037,8.56414401 7.81770037,7.88787656 C7.81770037,7.2120867 8.33103345,6.66381337 8.9647559,6.66381337 L8.9647559,6.66381337 Z M12,1.56649522 L12,1.49533431 C12,0.66958119 11.3725432,0 10.5982919,0 L1.40170813,0 C0.627456831,0 0,0.66958119 0,1.49533431 L0,1.56649522 L0,4.30117561 L0,4.97744306 L0,11.5041881 C0,12.3304188 0.627456831,13 1.40170813,13 L10.5982919,13 C11.3725432,13 12,12.3304188 12,11.5041881 L12,4.30117561 C12,3.47542248 11.3725432,2.80584129 10.5982919,2.80584129 L2.15492485,2.80584129 C1.83448327,2.80584129 1.57446015,2.5283615 1.57446015,2.18640705 L1.57446015,2.18640705 C1.57446015,1.84397502 1.83448327,1.56649522 2.15492485,1.56649522 L12,1.56649522 Z" id="Fill-1" fill="#656665" mask="url(#mask-2)"></path>
                </g>
            </g>
        </g>
    </g>
</svg>